<svg width="66" height="24" viewBox="0 0 66 24" fill="none" xmlns="http://www.w3.org/2000/svg">
<path d="M8.82 12.64L7.26 8.1L5.7 12.64H8.82ZM9.74 15.18H4.78L3.78 18H0.98L5.98 4H8.54L13.54 18H10.74L9.74 15.18ZM15.8195 18V4H21.6195C24.4595 4 26.0395 5.6 26.0395 8.02C26.0395 9.18 25.6195 10.2 24.7795 10.84C25.7595 11.58 26.3795 12.66 26.3795 13.9C26.3795 16.38 24.8195 18 21.9395 18H15.8195ZM18.4995 15.34H22.0195C23.1195 15.34 23.6995 14.78 23.6995 13.8C23.6995 12.8 23.0395 12.26 22.0195 12.26H18.4995V15.34ZM23.3595 8.12C23.3595 7.14 22.6995 6.66 21.6795 6.66H18.4995V9.6H21.6795C22.6995 9.6 23.3595 9.08 23.3595 8.12ZM39.4595 13.02C39.4595 16.12 37.5395 18.2 34.1795 18.2C30.8195 18.2 28.8995 16.12 28.8995 13.02V8.98C28.8995 5.88 30.8195 3.8 34.1795 3.8C37.5395 3.8 39.4595 5.88 39.4595 8.98V13.02ZM36.7795 13.02V8.98C36.7795 7.36 35.6395 6.46 34.1795 6.46C32.7195 6.46 31.5795 7.36 31.5795 8.98V13.02C31.5795 14.64 32.7195 15.54 34.1795 15.54C35.6395 15.54 36.7795 14.64 36.7795 13.02ZM50.3438 4H53.0238V13.02C53.0238 16.12 51.1038 18.2 47.7438 18.2C44.3838 18.2 42.4638 16.12 42.4638 13.02V4H45.1438V13.02C45.1438 14.64 46.2838 15.54 47.7438 15.54C49.2038 15.54 50.3438 14.64 50.3438 13.02V4ZM65.6767 6.66H61.7767V18H59.0167V6.66H55.1167V4H65.6767V6.66Z" fill="#252020"/>
</svg>
