<svg width="200" height="16" viewBox="0 0 200 16" fill="none" xmlns="http://www.w3.org/2000/svg">
<path d="M0.3 15V0.999999H6.1C8.94 0.999999 10.52 2.6 10.52 5.02C10.52 6.18 10.1 7.2 9.26 7.84C10.24 8.58 10.86 9.66 10.86 10.9C10.86 13.38 9.3 15 6.42 15H0.3ZM2.98 12.34H6.5C7.6 12.34 8.18 11.78 8.18 10.8C8.18 9.8 7.52 9.26 6.5 9.26H2.98V12.34ZM7.84 5.12C7.84 4.14 7.18 3.66 6.16 3.66H2.98V6.6H6.16C7.18 6.6 7.84 6.08 7.84 5.12ZM15.48 3.66V6.6H21.32V9.26H15.48V12.34H21.32V15H12.8V0.999999H21.32V3.66H15.48ZM37.04 3.66H33.14V15H30.38V3.66H26.48V0.999999H37.04V3.66ZM46.2073 6.6V0.999999H48.8873V15H46.2073V9.26H41.0073V15H38.3273V0.999999H41.0073V6.6H46.2073ZM54.1714 3.66V6.6H60.0114V9.26H54.1714V12.34H60.0114V15H51.4914V0.999999H60.0114V3.66H54.1714ZM69.1714 3.66V6.6H75.0114V9.26H69.1714V15H66.4914V0.999999H75.0114V3.66H69.1714ZM79.7769 0.999999V15H77.0969V0.999999H79.7769ZM86.6903 9.24H85.0503V15H82.3703V0.999999H88.2703C91.1103 0.999999 92.6903 2.6 92.6903 5.12C92.6903 7.2 91.6303 8.64 89.6703 9.1L93.1503 15H90.0703L86.6903 9.24ZM90.0103 5.16C90.0103 4.18 89.3503 3.66 88.3303 3.66H85.0503V6.64H88.3303C89.3503 6.64 90.0103 6.12 90.0103 5.16ZM99.0336 15.2C95.9736 15.2 93.9936 13.36 93.8536 10.58H96.6136C96.7736 11.76 97.6936 12.54 99.0336 12.54C100.214 12.54 101.034 12.1 101.034 11.14C101.034 10.36 100.574 9.92 99.5936 9.66L97.2336 9.02C95.0936 8.44 94.0336 6.94 94.0336 4.88C94.0336 2.08 96.2336 0.799999 98.6736 0.799999C101.474 0.799999 103.214 2.44 103.514 4.82H100.754C100.514 3.88 99.5336 3.46 98.6336 3.46C97.5136 3.46 96.7136 3.9 96.7136 4.88C96.7136 5.7 97.3536 6.06 98.1136 6.26L100.394 6.88C102.554 7.46 103.714 8.78 103.714 11.14C103.714 13.66 102.074 15.2 99.0336 15.2ZM114.794 3.66H110.894V15H108.134V3.66H104.234V0.999999H114.794V3.66ZM129.52 3.66H125.62V15H122.86V3.66H118.96V0.999999H129.52V3.66ZM140.772 10.02C140.772 13.12 138.852 15.2 135.492 15.2C132.132 15.2 130.212 13.12 130.212 10.02V5.98C130.212 2.88 132.132 0.799999 135.492 0.799999C138.852 0.799999 140.772 2.88 140.772 5.98V10.02ZM138.092 10.02V5.98C138.092 4.36 136.952 3.46 135.492 3.46C134.032 3.46 132.892 4.36 132.892 5.98V10.02C132.892 11.64 134.032 12.54 135.492 12.54C136.952 12.54 138.092 11.64 138.092 10.02ZM149.875 11.04V15H147.155V0.999999H149.875V7.04L155.015 0.999999H158.435L153.515 6.78L158.935 15H155.655L151.675 8.94L149.875 11.04ZM170.606 0.999999V15H167.926L162.726 5.98V15H160.046V0.999999H162.726L167.926 10.02V0.999999H170.606ZM183.35 10.02C183.35 13.12 181.43 15.2 178.07 15.2C174.71 15.2 172.79 13.12 172.79 10.02V5.98C172.79 2.88 174.71 0.799999 178.07 0.799999C181.43 0.799999 183.35 2.88 183.35 5.98V10.02ZM180.67 10.02V5.98C180.67 4.36 179.53 3.46 178.07 3.46C176.61 3.46 175.47 4.36 175.47 5.98V10.02C175.47 11.64 176.61 12.54 178.07 12.54C179.53 12.54 180.67 11.64 180.67 10.02ZM193.554 15L191.754 6.88L189.954 15H187.054L184.474 0.999999H187.174L188.794 10.48L190.454 3H193.054L194.714 10.48L196.334 0.999999H199.034L196.454 15H193.554Z" fill="white"/>
</svg>
