<svg width="119" height="24" viewBox="0 0 119 24" fill="none" xmlns="http://www.w3.org/2000/svg">
<path d="M8.74 13.32H11.44C11.32 16.26 9.42 18.2 6.16 18.2C2.8 18.2 0.88 16.12 0.88 13.02V8.98C0.88 5.88 2.8 3.8 6.16 3.8C9.42 3.8 11.32 5.74 11.44 8.68H8.74C8.6 7.26 7.52 6.46 6.16 6.46C4.7 6.46 3.56 7.36 3.56 8.98V13.02C3.56 14.64 4.7 15.54 6.16 15.54C7.52 15.54 8.6 14.76 8.74 13.32ZM24.5689 13.02C24.5689 16.12 22.6489 18.2 19.2889 18.2C15.9289 18.2 14.0089 16.12 14.0089 13.02V8.98C14.0089 5.88 15.9289 3.8 19.2889 3.8C22.6489 3.8 24.5689 5.88 24.5689 8.98V13.02ZM21.8889 13.02V8.98C21.8889 7.36 20.7489 6.46 19.2889 6.46C17.8289 6.46 16.6889 7.36 16.6889 8.98V13.02C16.6889 14.64 17.8289 15.54 19.2889 15.54C20.7489 15.54 21.8889 14.64 21.8889 13.02ZM38.3131 4V18H35.6331L30.4331 8.98V18H27.7531V4H30.4331L35.6331 13.02V4H38.3131ZM51.1572 6.66H47.2572V18H44.4972V6.66H40.5972V4H51.1572V6.66ZM59.0466 12.64L57.4866 8.1L55.9266 12.64H59.0466ZM59.9666 15.18H55.0066L54.0066 18H51.2066L56.2066 4H58.7666L63.7666 18H60.9666L59.9666 15.18ZM73.3103 13.32H76.0103C75.8903 16.26 73.9903 18.2 70.7303 18.2C67.3703 18.2 65.4503 16.12 65.4503 13.02V8.98C65.4503 5.88 67.3703 3.8 70.7303 3.8C73.9903 3.8 75.8903 5.74 76.0103 8.68H73.3103C73.1703 7.26 72.0903 6.46 70.7303 6.46C69.2703 6.46 68.1303 7.36 68.1303 8.98V13.02C68.1303 14.64 69.2703 15.54 70.7303 15.54C72.0903 15.54 73.1703 14.76 73.3103 13.32ZM88.2002 6.66H84.3002V18H81.5402V6.66H77.6402V4H88.2002V6.66ZM103.387 4H106.067V13.02C106.067 16.12 104.147 18.2 100.787 18.2C97.4267 18.2 95.5067 16.12 95.5067 13.02V4H98.1867V13.02C98.1867 14.64 99.3267 15.54 100.787 15.54C102.247 15.54 103.387 14.64 103.387 13.02V4ZM113.78 18.2C110.72 18.2 108.74 16.36 108.6 13.58H111.36C111.52 14.76 112.44 15.54 113.78 15.54C114.96 15.54 115.78 15.1 115.78 14.14C115.78 13.36 115.32 12.92 114.34 12.66L111.98 12.02C109.84 11.44 108.78 9.94 108.78 7.88C108.78 5.08 110.98 3.8 113.42 3.8C116.22 3.8 117.96 5.44 118.26 7.82H115.5C115.26 6.88 114.28 6.46 113.38 6.46C112.26 6.46 111.46 6.9 111.46 7.88C111.46 8.7 112.1 9.06 112.86 9.26L115.14 9.88C117.3 10.46 118.46 11.78 118.46 14.14C118.46 16.66 116.82 18.2 113.78 18.2Z" fill="#252020"/>
</svg>
