<svg width="110" height="16" viewBox="0 0 110 16" fill="none" xmlns="http://www.w3.org/2000/svg">
<path d="M8.74 10.32H11.44C11.32 13.26 9.42 15.2 6.16 15.2C2.8 15.2 0.88 13.12 0.88 10.02V5.98C0.88 2.88 2.8 0.799999 6.16 0.799999C9.42 0.799999 11.32 2.74 11.44 5.68H8.74C8.6 4.26 7.52 3.46 6.16 3.46C4.7 3.46 3.56 4.36 3.56 5.98V10.02C3.56 11.64 4.7 12.54 6.16 12.54C7.52 12.54 8.6 11.76 8.74 10.32ZM23.5689 10.02C23.5689 13.12 21.6489 15.2 18.2889 15.2C14.9289 15.2 13.0089 13.12 13.0089 10.02V5.98C13.0089 2.88 14.9289 0.799999 18.2889 0.799999C21.6489 0.799999 23.5689 2.88 23.5689 5.98V10.02ZM20.8889 10.02V5.98C20.8889 4.36 19.7489 3.46 18.2889 3.46C16.8289 3.46 15.6889 4.36 15.6889 5.98V10.02C15.6889 11.64 16.8289 12.54 18.2889 12.54C19.7489 12.54 20.8889 11.64 20.8889 10.02ZM36.3131 0.999999V15H33.6331L28.4331 5.98V15H25.7531V0.999999H28.4331L33.6331 10.02V0.999999H36.3131ZM48.1572 3.66H44.2572V15H41.4972V3.66H37.5972V0.999999H48.1572V3.66ZM55.0466 9.64L53.4866 5.1L51.9266 9.64H55.0466ZM55.9666 12.18H51.0066L50.0066 15H47.2066L52.2066 0.999999H54.7666L59.7666 15H56.9666L55.9666 12.18ZM68.3103 10.32H71.0103C70.8903 13.26 68.9903 15.2 65.7303 15.2C62.3703 15.2 60.4503 13.12 60.4503 10.02V5.98C60.4503 2.88 62.3703 0.799999 65.7303 0.799999C68.9903 0.799999 70.8903 2.74 71.0103 5.68H68.3103C68.1703 4.26 67.0903 3.46 65.7303 3.46C64.2703 3.46 63.1303 4.36 63.1303 5.98V10.02C63.1303 11.64 64.2703 12.54 65.7303 12.54C67.0903 12.54 68.1703 11.76 68.3103 10.32ZM82.2002 3.66H78.3002V15H75.5402V3.66H71.6402V0.999999H82.2002V3.66ZM95.3867 0.999999H98.0667V10.02C98.0667 13.12 96.1467 15.2 92.7867 15.2C89.4267 15.2 87.5067 13.12 87.5067 10.02V0.999999H90.1867V10.02C90.1867 11.64 91.3267 12.54 92.7867 12.54C94.2467 12.54 95.3867 11.64 95.3867 10.02V0.999999ZM104.78 15.2C101.72 15.2 99.7397 13.36 99.5997 10.58H102.36C102.52 11.76 103.44 12.54 104.78 12.54C105.96 12.54 106.78 12.1 106.78 11.14C106.78 10.36 106.32 9.92 105.34 9.66L102.98 9.02C100.84 8.44 99.7797 6.94 99.7797 4.88C99.7797 2.08 101.98 0.799999 104.42 0.799999C107.22 0.799999 108.96 2.44 109.26 4.82H106.5C106.26 3.88 105.28 3.46 104.38 3.46C103.26 3.46 102.46 3.9 102.46 4.88C102.46 5.7 103.1 6.06 103.86 6.26L106.14 6.88C108.3 7.46 109.46 8.78 109.46 11.14C109.46 13.66 107.82 15.2 104.78 15.2Z" fill="white"/>
</svg>
