<svg width="98" height="16" viewBox="0 0 98 16" fill="none" xmlns="http://www.w3.org/2000/svg">
<path d="M8.74 10.32H11.44C11.32 13.26 9.42 15.2 6.16 15.2C2.8 15.2 0.88 13.12 0.88 10.02V5.98C0.88 2.88 2.8 0.799999 6.16 0.799999C9.42 0.799999 11.32 2.74 11.44 5.68H8.74C8.6 4.26 7.52 3.46 6.16 3.46C4.7 3.46 3.56 4.36 3.56 5.98V10.02C3.56 11.64 4.7 12.54 6.16 12.54C7.52 12.54 8.6 11.76 8.74 10.32ZM21.1289 0.999999H23.8089V10.02C23.8089 13.12 21.8889 15.2 18.5289 15.2C15.1689 15.2 13.2489 13.12 13.2489 10.02V0.999999H15.9289V10.02C15.9289 11.64 17.0689 12.54 18.5289 12.54C19.9889 12.54 21.1289 11.64 21.1289 10.02V0.999999ZM30.5419 9.24H28.9019V15H26.2219V0.999999H32.1219C34.9619 0.999999 36.5419 2.6 36.5419 5.12C36.5419 7.2 35.4819 8.64 33.5219 9.1L37.0019 15H33.9219L30.5419 9.24ZM33.8619 5.16C33.8619 4.18 33.2019 3.66 32.1819 3.66H28.9019V6.64H32.1819C33.2019 6.64 33.8619 6.12 33.8619 5.16ZM42.9052 9.24H41.2652V15H38.5852V0.999999H44.4852C47.3252 0.999999 48.9052 2.6 48.9052 5.12C48.9052 7.2 47.8452 8.64 45.8852 9.1L49.3652 15H46.2852L42.9052 9.24ZM46.2252 5.16C46.2252 4.18 45.5652 3.66 44.5452 3.66H41.2652V6.64H44.5452C45.5652 6.64 46.2252 6.12 46.2252 5.16ZM53.6284 3.66V6.6H59.4684V9.26H53.6284V12.34H59.4684V15H50.9484V0.999999H59.4684V3.66H53.6284ZM72.3092 0.999999V15H69.6292L64.4292 5.98V15H61.7492V0.999999H64.4292L69.6292 10.02V0.999999H72.3092ZM82.3533 10.32H85.0533C84.9333 13.26 83.0333 15.2 79.7733 15.2C76.4133 15.2 74.4933 13.12 74.4933 10.02V5.98C74.4933 2.88 76.4133 0.799999 79.7733 0.799999C83.0333 0.799999 84.9333 2.74 85.0533 5.68H82.3533C82.2133 4.26 81.1333 3.46 79.7733 3.46C78.3133 3.46 77.1733 4.36 77.1733 5.98V10.02C77.1733 11.64 78.3133 12.54 79.7733 12.54C81.1333 12.54 82.2133 11.76 82.3533 10.32ZM93.025 9.9V15H90.345V9.9L85.385 0.999999H88.425L91.685 6.84L94.945 0.999999H97.985L93.025 9.9Z" fill="white"/>
</svg>
