<svg width="223" height="54" viewBox="0 0 223 54" fill="none" xmlns="http://www.w3.org/2000/svg">
<path d="M3.984 12.752V10.032H1.232V8.992H3.984V6.288H5.024V8.992H7.696V10.032H5.024V12.752H3.984ZM16.6659 10.976H15.4979V14H14.2979V10.976H9.16188V9.856L14.2979 2.8H15.4979V9.856H16.6659V10.976ZM10.5379 9.856H14.2979V4.704L10.5379 9.856ZM25.1659 10.976H23.9979V14H22.7979V10.976H17.6619V9.856L22.7979 2.8H23.9979V9.856H25.1659V10.976ZM19.0379 9.856H22.7979V4.704L19.0379 9.856ZM29.9711 5.872C29.9711 3.44 31.6671 2.64 33.2031 2.64C34.7391 2.64 36.4351 3.456 36.4351 5.824C36.4351 7.168 35.7791 8.16 34.8031 9.232L31.5231 12.848H36.4351V14H29.9711V12.848L33.9551 8.464C34.6591 7.696 35.2351 6.784 35.2351 5.808C35.2351 4.496 34.2751 3.792 33.2031 3.792C32.1311 3.792 31.1711 4.48 31.1711 5.856V6.16H29.9711V5.872ZM38.0493 5.872C38.0493 3.44 39.7453 2.64 41.2812 2.64C42.8173 2.64 44.5133 3.456 44.5133 5.824C44.5133 7.168 43.8573 8.16 42.8813 9.232L39.6013 12.848H44.5133V14H38.0493V12.848L42.0333 8.464C42.7373 7.696 43.3133 6.784 43.3133 5.808C43.3133 4.496 42.3533 3.792 41.2812 3.792C40.2093 3.792 39.2493 4.48 39.2493 5.856V6.16H38.0493V5.872ZM48.2554 2.8H49.4554V14H48.2554V4.32L46.1114 6.16V4.64L48.2554 2.8ZM57.3023 2.8H58.5023V14H57.3023V4.32L55.1583 6.16V4.64L57.3023 2.8ZM60.6114 10.928V10.8H61.8114V10.944C61.8114 12.32 62.8034 13.008 63.9234 13.008C65.0754 13.008 65.8754 12.288 65.8754 11.024C65.8754 9.952 65.1394 8.944 63.9234 8.944H63.1234V7.792H63.9234C65.0274 7.792 65.8754 7.072 65.8754 5.776C65.8754 4.528 64.9474 3.792 63.8434 3.792C62.7714 3.792 61.8114 4.48 61.8114 5.856V6H60.6114V5.872C60.6114 3.44 62.3074 2.64 63.8434 2.64C65.4594 2.64 67.0754 3.552 67.0754 5.776C67.0754 7.024 66.4674 7.984 65.7154 8.368C66.4674 8.784 67.0754 9.744 67.0754 11.024C67.0754 13.264 65.4594 14.16 63.9234 14.16C62.3394 14.16 60.6114 13.36 60.6114 10.928ZM68.7833 10.928V10.8H69.9833V10.944C69.9833 12.32 70.9753 13.008 72.0953 13.008C73.2473 13.008 74.0473 12.288 74.0473 11.024C74.0473 9.952 73.3113 8.944 72.0953 8.944H71.2953V7.792H72.0953C73.1993 7.792 74.0473 7.072 74.0473 5.776C74.0473 4.528 73.1193 3.792 72.0153 3.792C70.9433 3.792 69.9833 4.48 69.9833 5.856V6H68.7833V5.872C68.7833 3.44 70.4793 2.64 72.0153 2.64C73.6313 2.64 75.2473 3.552 75.2473 5.776C75.2473 7.024 74.6393 7.984 73.8873 8.368C74.6393 8.784 75.2473 9.744 75.2473 11.024C75.2473 13.264 73.6313 14.16 72.0953 14.16C70.5113 14.16 68.7833 13.36 68.7833 10.928ZM82.1649 9.264H80.9649V2.8H86.8529V3.952H82.1649V7.536C82.6449 7.12 83.3809 6.896 84.0529 6.896C85.5889 6.896 87.2849 7.696 87.2849 10.128V10.928C87.2849 13.36 85.5889 14.16 84.0529 14.16C82.5169 14.16 80.8209 13.36 80.8209 10.928V10.8H82.0209V10.944C82.0209 12.32 82.9809 13.008 84.0529 13.008C85.1249 13.008 86.0849 12.32 86.0849 10.944V10.112C86.0849 8.736 85.1249 8.048 84.0529 8.048C83.2369 8.048 82.4689 8.448 82.1649 9.264ZM88.7364 10.928V10.8H89.9364V10.944C89.9364 12.32 90.9284 13.008 92.0484 13.008C93.2004 13.008 94.0004 12.288 94.0004 11.024C94.0004 9.952 93.2644 8.944 92.0484 8.944H91.2484V7.792H92.0484C93.1524 7.792 94.0004 7.072 94.0004 5.776C94.0004 4.528 93.0724 3.792 91.9684 3.792C90.8964 3.792 89.9364 4.48 89.9364 5.856V6H88.7364V5.872C88.7364 3.44 90.4324 2.64 91.9684 2.64C93.5844 2.64 95.2004 3.552 95.2004 5.776C95.2004 7.024 94.5924 7.984 93.8404 8.368C94.5924 8.784 95.2004 9.744 95.2004 11.024C95.2004 13.264 93.5844 14.16 92.0484 14.16C90.4644 14.16 88.7364 13.36 88.7364 10.928ZM97.1803 5.872C97.1803 3.44 98.8763 2.64 100.412 2.64C101.948 2.64 103.644 3.44 103.644 5.872V6H102.444V5.856C102.444 4.48 101.484 3.792 100.412 3.792C99.3403 3.792 98.3803 4.48 98.3803 5.856V7.792C98.7963 7.312 99.6603 7.008 100.412 7.008C101.948 7.008 103.644 7.808 103.644 10.24V10.928C103.644 13.36 101.948 14.16 100.412 14.16C98.8763 14.16 97.1803 13.36 97.1803 10.928V5.872ZM98.3803 10.224V10.944C98.3803 12.32 99.3403 13.008 100.412 13.008C101.484 13.008 102.444 12.32 102.444 10.944V10.224C102.444 8.848 101.484 8.16 100.412 8.16C99.3403 8.16 98.3803 8.848 98.3803 10.224ZM110.866 10.944V5.856C110.866 4.48 109.906 3.792 108.834 3.792C107.762 3.792 106.802 4.48 106.802 5.856V10.944C106.802 12.32 107.762 13.008 108.834 13.008C109.906 13.008 110.866 12.32 110.866 10.944ZM112.066 5.872V10.928C112.066 13.36 110.37 14.16 108.834 14.16C107.298 14.16 105.602 13.36 105.602 10.928V5.872C105.602 3.44 107.298 2.64 108.834 2.64C110.37 2.64 112.066 3.44 112.066 5.872Z" fill="white"/>
<path d="M4.208 40.52C5.664 40.52 7.248 41.224 7.424 43.352H6.208C6.048 42.232 5.168 41.672 4.208 41.672C3.136 41.672 2.176 42.36 2.176 43.736V45.944C2.176 47.32 3.136 48.008 4.208 48.008C5.168 48.008 6.048 47.448 6.208 46.328H7.424C7.248 48.456 5.664 49.16 4.208 49.16C2.672 49.16 0.976 48.376 0.976 45.928V43.752C0.976 41.32 2.672 40.52 4.208 40.52ZM12.5064 49.16C11.1464 49.16 9.32238 48.424 9.32238 45.976V40.744H10.5224V45.896C10.5224 47.368 11.5304 48.008 12.5064 48.008C13.5144 48.008 14.4904 47.304 14.4904 45.944V40.744H15.6904V49H14.4904V48.152C14.0744 48.808 13.2104 49.16 12.5064 49.16ZM23.5306 43.16H22.2986C22.1546 42.2 21.5146 41.672 20.4906 41.672C19.5946 41.672 18.9386 42.12 18.9386 42.872C18.9386 43.56 19.4026 43.864 20.0746 44.024L21.6266 44.408C22.8746 44.712 23.7386 45.336 23.7386 46.856C23.7386 48.488 22.5066 49.16 20.8266 49.16C19.0986 49.16 17.6426 48.36 17.5146 46.36H18.7466C18.8586 47.528 19.7226 48.008 20.8266 48.008C21.9786 48.008 22.5066 47.544 22.5226 46.824C22.5226 46.296 22.2826 45.832 21.3706 45.608L19.7546 45.208C18.8586 45 17.7226 44.392 17.7226 42.92C17.7226 41.4 18.9866 40.52 20.5066 40.52C22.1706 40.52 23.4026 41.32 23.5306 43.16ZM27.2059 41.896V47.128C27.2059 47.656 27.3979 47.848 27.9739 47.848H29.2379V49H27.9739C26.4379 49 26.0059 48.44 26.0059 47.032V41.896H24.8379V40.744H26.0059V38.872H27.2059V40.744H29.2379V41.896H27.2059ZM36.115 45.944V43.736C36.115 42.36 35.155 41.672 34.083 41.672C33.011 41.672 32.051 42.36 32.051 43.736V45.944C32.051 47.32 33.011 48.008 34.083 48.008C35.155 48.008 36.115 47.32 36.115 45.944ZM37.315 43.752V45.928C37.315 48.36 35.619 49.16 34.083 49.16C32.547 49.16 30.851 48.36 30.851 45.928V43.752C30.851 41.32 32.547 40.52 34.083 40.52C35.619 40.52 37.315 41.32 37.315 43.752ZM50.7449 49H49.5449V43.64C49.5449 42.408 48.5849 41.672 47.6409 41.672C46.6649 41.672 45.7209 42.408 45.7209 43.736V49H44.5209V43.64C44.5209 42.408 43.5609 41.672 42.6169 41.672C41.6409 41.672 40.6969 42.408 40.6969 43.736V49H39.4969V40.744H40.6969V41.528C41.0969 40.856 42.0089 40.52 42.6169 40.52C43.5449 40.52 44.5529 40.904 45.1129 41.816C45.6729 40.904 46.6969 40.52 47.6249 40.52C49.1129 40.52 50.7449 41.416 50.7449 43.752V49ZM56.0361 48.008C56.9801 48.008 57.8281 47.48 58.0201 46.408H59.2521C59.0441 48.472 57.4761 49.16 56.0361 49.16C54.5001 49.16 52.8041 48.36 52.8041 45.928V43.752C52.8041 41.32 54.5001 40.52 56.0361 40.52C57.5721 40.52 59.2681 41.32 59.2681 43.752V45.144H54.0041V45.944C54.0041 47.32 54.9641 48.008 56.0361 48.008ZM58.0681 44.04V43.736C58.0681 42.36 57.1081 41.672 56.0361 41.672C54.9641 41.672 54.0041 42.36 54.0041 43.736V44.04H58.0681ZM62.5719 40.744V41.608C62.9879 40.936 63.8519 40.6 64.6039 40.6H65.1319V41.752H64.6039C63.5319 41.752 62.5719 42.44 62.5719 43.816V49H61.3719V40.744H62.5719ZM69.583 40.52C71.039 40.52 72.623 41.224 72.799 43.352H71.583C71.423 42.232 70.543 41.672 69.583 41.672C68.511 41.672 67.551 42.36 67.551 43.736V45.944C67.551 47.32 68.511 48.008 69.583 48.008C70.543 48.008 71.423 47.448 71.583 46.328H72.799C72.623 48.456 71.039 49.16 69.583 49.16C68.047 49.16 66.351 48.376 66.351 45.928V43.752C66.351 41.32 68.047 40.52 69.583 40.52ZM77.612 41.672C76.668 41.672 75.82 42.2 75.628 43.272H74.396C74.604 41.208 76.172 40.52 77.612 40.52C79.148 40.52 80.844 41.32 80.844 43.752V49H79.644V48.152C79.116 48.84 78.188 49.16 77.068 49.16C75.66 49.16 74.332 48.408 74.332 46.712C74.332 45.88 74.684 44.76 76.124 44.344C77.068 44.072 78.252 43.976 79.644 43.88V43.736C79.644 42.36 78.684 41.672 77.612 41.672ZM79.644 46.024V44.952C77.836 45.08 76.812 45.192 76.252 45.496C75.644 45.832 75.532 46.2 75.532 46.68C75.532 47.432 76.108 48.008 77.324 48.008C78.62 48.008 79.644 47.32 79.644 46.024ZM84.3375 40.744V41.608C84.7535 40.936 85.6175 40.6 86.3695 40.6H86.8975V41.752H86.3695C85.2975 41.752 84.3375 42.44 84.3375 43.816V49H83.1375V40.744H84.3375ZM91.3486 48.008C92.2926 48.008 93.1406 47.48 93.3326 46.408H94.5646C94.3566 48.472 92.7886 49.16 91.3486 49.16C89.8126 49.16 88.1166 48.36 88.1166 45.928V43.752C88.1166 41.32 89.8126 40.52 91.3486 40.52C92.8846 40.52 94.5806 41.32 94.5806 43.752V45.144H89.3166V45.944C89.3166 47.32 90.2766 48.008 91.3486 48.008ZM93.3806 44.04V43.736C93.3806 42.36 92.4206 41.672 91.3486 41.672C90.2766 41.672 89.3166 42.36 89.3166 43.736V44.04H93.3806ZM104.62 46.024V44.952C102.812 45.08 101.788 45.192 101.228 45.496C100.62 45.832 100.508 46.2 100.508 46.68C100.508 47.432 101.084 48.008 102.3 48.008C103.596 48.008 104.62 47.32 104.62 46.024ZM102.588 41.672C101.644 41.672 100.796 42.2 100.604 43.272H99.3724C99.5804 41.208 101.148 40.52 102.588 40.52C104.124 40.52 105.82 41.32 105.82 43.752V47.224C105.82 47.784 106.172 48.136 106.684 48.136C107.196 48.136 107.532 47.784 107.532 47.224V43.112C107.532 40.504 105.228 38.664 102.588 38.664C99.9484 38.664 97.6444 40.504 97.6444 43.112V46.632C97.6444 49.24 99.9484 51.08 102.588 51.08C103.708 51.08 104.78 50.76 105.644 50.168L106.204 51.064C105.212 51.72 103.964 52.104 102.588 52.104C99.2284 52.104 96.6044 49.848 96.6044 46.632V43.112C96.6044 39.896 99.2284 37.64 102.588 37.64C105.948 37.64 108.572 39.896 108.572 43.112V47.304C108.572 48.552 107.852 49.16 106.684 49.16C105.596 49.16 104.972 48.76 104.62 48.152C104.092 48.84 103.164 49.16 102.044 49.16C100.636 49.16 99.3084 48.408 99.3084 46.712C99.3084 45.88 99.6604 44.76 101.1 44.344C102.044 44.072 103.228 43.976 104.62 43.88V43.736C104.62 42.36 103.66 41.672 102.588 41.672ZM122.136 49H120.936V43.64C120.936 42.408 119.976 41.672 119.032 41.672C118.056 41.672 117.112 42.408 117.112 43.736V49H115.912V43.64C115.912 42.408 114.952 41.672 114.008 41.672C113.032 41.672 112.088 42.408 112.088 43.736V49H110.888V40.744H112.088V41.528C112.488 40.856 113.4 40.52 114.008 40.52C114.936 40.52 115.944 40.904 116.504 41.816C117.064 40.904 118.088 40.52 119.016 40.52C120.504 40.52 122.136 41.416 122.136 43.752V49ZM127.427 48.008C128.371 48.008 129.219 47.48 129.411 46.408H130.643C130.435 48.472 128.867 49.16 127.427 49.16C125.891 49.16 124.195 48.36 124.195 45.928V43.752C124.195 41.32 125.891 40.52 127.427 40.52C128.963 40.52 130.659 41.32 130.659 43.752V45.144H125.395V45.944C125.395 47.32 126.355 48.008 127.427 48.008ZM129.459 44.04V43.736C129.459 42.36 128.499 41.672 127.427 41.672C126.355 41.672 125.395 42.36 125.395 43.736V44.04H129.459ZM134.347 41.896V47.128C134.347 47.656 134.539 47.848 135.115 47.848H136.379V49H135.115C133.579 49 133.147 48.44 133.147 47.032V41.896H131.979V40.744H133.147V38.872H134.347V40.744H136.379V41.896H134.347ZM139.8 41.896V47.128C139.8 47.656 139.992 47.848 140.568 47.848H141.832V49H140.568C139.032 49 138.6 48.44 138.6 47.032V41.896H137.432V40.744H138.6V38.872H139.8V40.744H141.832V41.896H139.8ZM146.581 41.672C145.637 41.672 144.789 42.2 144.597 43.272H143.365C143.573 41.208 145.141 40.52 146.581 40.52C148.117 40.52 149.813 41.32 149.813 43.752V49H148.613V48.152C148.085 48.84 147.157 49.16 146.037 49.16C144.629 49.16 143.301 48.408 143.301 46.712C143.301 45.88 143.653 44.76 145.093 44.344C146.037 44.072 147.221 43.976 148.613 43.88V43.736C148.613 42.36 147.653 41.672 146.581 41.672ZM148.613 46.024V44.952C146.805 45.08 145.781 45.192 145.221 45.496C144.613 45.832 144.501 46.2 144.501 46.68C144.501 47.432 145.077 48.008 146.293 48.008C147.589 48.008 148.613 47.32 148.613 46.024ZM163.354 49H162.154V43.64C162.154 42.408 161.194 41.672 160.25 41.672C159.274 41.672 158.33 42.408 158.33 43.736V49H157.13V43.64C157.13 42.408 156.17 41.672 155.226 41.672C154.25 41.672 153.306 42.408 153.306 43.736V49H152.106V40.744H153.306V41.528C153.706 40.856 154.618 40.52 155.226 40.52C156.154 40.52 157.162 40.904 157.722 41.816C158.282 40.904 159.306 40.52 160.234 40.52C161.722 40.52 163.354 41.416 163.354 43.752V49ZM168.71 49.16C167.35 49.16 165.526 48.424 165.526 45.976V40.744H166.726V45.896C166.726 47.368 167.734 48.008 168.71 48.008C169.718 48.008 170.694 47.304 170.694 45.944V40.744H171.894V49H170.694V48.152C170.278 48.808 169.414 49.16 168.71 49.16ZM179.734 43.16H178.502C178.358 42.2 177.718 41.672 176.694 41.672C175.798 41.672 175.142 42.12 175.142 42.872C175.142 43.56 175.606 43.864 176.278 44.024L177.83 44.408C179.078 44.712 179.942 45.336 179.942 46.856C179.942 48.488 178.71 49.16 177.03 49.16C175.302 49.16 173.846 48.36 173.718 46.36H174.95C175.062 47.528 175.926 48.008 177.03 48.008C178.182 48.008 178.71 47.544 178.726 46.824C178.726 46.296 178.486 45.832 177.574 45.608L175.958 45.208C175.062 45 173.926 44.392 173.926 42.92C173.926 41.4 175.19 40.52 176.71 40.52C178.374 40.52 179.606 41.32 179.734 43.16ZM184.833 48.008C185.777 48.008 186.625 47.48 186.817 46.408H188.049C187.841 48.472 186.273 49.16 184.833 49.16C183.297 49.16 181.601 48.36 181.601 45.928V43.752C181.601 41.32 183.297 40.52 184.833 40.52C186.369 40.52 188.065 41.32 188.065 43.752V45.144H182.801V45.944C182.801 47.32 183.761 48.008 184.833 48.008ZM186.865 44.04V43.736C186.865 42.36 185.905 41.672 184.833 41.672C183.761 41.672 182.801 42.36 182.801 43.736V44.04H186.865ZM190.094 49V47.32H191.774V49H190.094ZM196.942 40.52C198.398 40.52 199.982 41.224 200.158 43.352H198.942C198.782 42.232 197.902 41.672 196.942 41.672C195.87 41.672 194.91 42.36 194.91 43.736V45.944C194.91 47.32 195.87 48.008 196.942 48.008C197.902 48.008 198.782 47.448 198.942 46.328H200.158C199.982 48.456 198.398 49.16 196.942 49.16C195.406 49.16 193.71 48.376 193.71 45.928V43.752C193.71 41.32 195.406 40.52 196.942 40.52ZM207.209 45.944V43.736C207.209 42.36 206.249 41.672 205.177 41.672C204.105 41.672 203.145 42.36 203.145 43.736V45.944C203.145 47.32 204.105 48.008 205.177 48.008C206.249 48.008 207.209 47.32 207.209 45.944ZM208.409 43.752V45.928C208.409 48.36 206.713 49.16 205.177 49.16C203.641 49.16 201.945 48.36 201.945 45.928V43.752C201.945 41.32 203.641 40.52 205.177 40.52C206.713 40.52 208.409 41.32 208.409 43.752ZM221.839 49H220.639V43.64C220.639 42.408 219.679 41.672 218.735 41.672C217.759 41.672 216.815 42.408 216.815 43.736V49H215.615V43.64C215.615 42.408 214.655 41.672 213.711 41.672C212.735 41.672 211.791 42.408 211.791 43.736V49H210.591V40.744H211.791V41.528C212.191 40.856 213.103 40.52 213.711 40.52C214.639 40.52 215.647 40.904 216.207 41.816C216.767 40.904 217.791 40.52 218.719 40.52C220.207 40.52 221.839 41.416 221.839 43.752V49Z" fill="white"/>
</svg>
