<svg width="721" height="168" viewBox="0 0 721 168" fill="none" xmlns="http://www.w3.org/2000/svg">
<path d="M32.8898 12V54H46.4498C54.4898 54 60.0098 48.6 60.0098 39.78V26.22C60.0098 17.4 54.4898 12 46.4498 12H32.8898ZM46.4498 16.56C51.4298 16.62 55.3898 19.86 55.3898 26.22V39.78C55.3898 46.14 51.4298 49.44 46.4498 49.44H37.5098V16.56H46.4498ZM69.3391 54H73.9591V12H69.3391V54ZM95.5573 54.6C103.957 54.6 108.277 50.1 108.277 43.38C108.277 36.72 104.437 33.06 98.4973 31.38L93.5773 30C89.2573 28.8 87.3373 26.4 87.3373 22.56C87.3373 18.9 90.0373 15.96 95.0773 15.96C99.5773 15.96 102.097 18.6 102.997 22.62H107.737C106.837 15.48 102.337 11.4 95.0773 11.4C88.3573 11.4 82.6573 15.36 82.6573 22.56C82.6573 27.66 85.2373 32.76 91.4773 34.5L96.8173 36C101.557 37.32 103.597 39.6 103.597 43.38C103.597 47.82 100.297 50.04 95.5573 50.04C91.0573 50.04 87.3973 46.98 86.6773 41.58H81.9373C82.5373 49.62 87.9373 54.6 95.5573 54.6ZM128.873 11.4C120.833 11.4 115.313 16.8 115.313 25.62V40.38C115.313 49.2 120.833 54.6 128.873 54.6C136.553 54.6 141.893 49.68 142.373 41.58H137.753C137.273 47.16 133.553 50.04 128.873 50.04C123.893 50.04 119.933 46.74 119.933 40.38V25.62C119.933 19.26 123.893 15.96 128.873 15.96C133.553 15.96 137.273 18.84 137.753 24.42H142.373C141.893 16.32 136.553 11.4 128.873 11.4ZM172.329 40.38C172.329 46.74 168.369 50.04 163.389 50.04C158.409 50.04 154.449 46.74 154.449 40.38V25.62C154.449 19.26 158.409 15.96 163.389 15.96C168.369 15.96 172.329 19.26 172.329 25.62V40.38ZM176.949 25.62C176.949 16.8 171.429 11.4 163.389 11.4C155.349 11.4 149.829 16.8 149.829 25.62V40.38C149.829 49.2 155.349 54.6 163.389 54.6C171.429 54.6 176.949 49.2 176.949 40.38V25.62ZM197.785 47.58L186.325 12H181.645L195.145 54H200.425L213.925 12H209.245L197.785 47.58ZM225.209 35.04H244.469V30.48H225.209V16.56H244.469V12H220.589V54H244.469V49.44H225.209V35.04ZM265.389 34.98L276.549 54H281.889L270.669 34.86C277.869 33.9 280.509 28.62 280.509 23.52C280.509 17.94 277.329 12 268.389 12H254.109V54H258.729V34.98H265.389ZM275.829 23.52C275.829 27.54 273.129 30.54 268.389 30.54H258.729V16.56H268.389C273.129 16.56 275.829 19.5 275.829 23.52ZM325.161 40.38C325.161 46.74 321.201 50.04 316.221 50.04C311.241 50.04 307.281 46.74 307.281 40.38V25.62C307.281 19.26 311.241 15.96 316.221 15.96C321.201 15.96 325.161 19.26 325.161 25.62V40.38ZM329.781 25.62C329.781 16.8 324.261 11.4 316.221 11.4C308.181 11.4 302.661 16.8 302.661 25.62V40.38C302.661 49.2 308.181 54.6 316.221 54.6C324.261 54.6 329.781 49.2 329.781 40.38V25.62ZM338.6 40.38C338.6 49.2 344.12 54.6 352.16 54.6C360.2 54.6 365.72 49.2 365.72 40.38V12H361.1V40.38C361.1 46.74 357.14 50.04 352.16 50.04C347.18 50.04 343.22 46.74 343.22 40.38V12H338.6V40.38ZM387.045 34.98L398.205 54H403.545L392.325 34.86C399.525 33.9 402.165 28.62 402.165 23.52C402.165 17.94 398.985 12 390.045 12H375.765V54H380.385V34.98H387.045ZM397.485 23.52C397.485 27.54 394.785 30.54 390.045 30.54H380.385V16.56H390.045C394.785 16.56 397.485 19.5 397.485 23.52ZM452.697 24.84C452.697 17.4 448.857 12 439.137 12H425.577V54H430.197V37.68H439.137C448.857 37.68 452.697 32.28 452.697 24.84ZM447.957 24.84C447.957 29.4 445.617 33.12 439.137 33.12H430.197V16.56H439.137C445.617 16.56 447.957 20.28 447.957 24.84ZM471.49 34.98L482.65 54H487.99L476.77 34.86C483.97 33.9 486.61 28.62 486.61 23.52C486.61 17.94 483.43 12 474.49 12H460.21V54H464.83V34.98H471.49ZM481.93 23.52C481.93 27.54 479.23 30.54 474.49 30.54H464.83V16.56H474.49C479.23 16.56 481.93 19.5 481.93 23.52ZM516.552 40.38C516.552 46.74 512.592 50.04 507.612 50.04C502.632 50.04 498.672 46.74 498.672 40.38V25.62C498.672 19.26 502.632 15.96 507.612 15.96C512.592 15.96 516.552 19.26 516.552 25.62V40.38ZM521.172 25.62C521.172 16.8 515.652 11.4 507.612 11.4C499.572 11.4 494.052 16.8 494.052 25.62V40.38C494.052 49.2 499.572 54.6 507.612 54.6C515.652 54.6 521.172 49.2 521.172 40.38V25.62ZM530.53 12V54H544.09C552.13 54 557.65 48.6 557.65 39.78V26.22C557.65 17.4 552.13 12 544.09 12H530.53ZM544.09 16.56C549.07 16.62 553.03 19.86 553.03 26.22V39.78C553.03 46.14 549.07 49.44 544.09 49.44H535.15V16.56H544.09ZM566.44 40.38C566.44 49.2 571.96 54.6 580 54.6C588.04 54.6 593.56 49.2 593.56 40.38V12H588.94V40.38C588.94 46.74 584.98 50.04 580 50.04C575.02 50.04 571.06 46.74 571.06 40.38V12H566.44V40.38ZM615.905 11.4C607.865 11.4 602.345 16.8 602.345 25.62V40.38C602.345 49.2 607.865 54.6 615.905 54.6C623.585 54.6 628.925 49.68 629.405 41.58H624.785C624.305 47.16 620.585 50.04 615.905 50.04C610.925 50.04 606.965 46.74 606.965 40.38V25.62C606.965 19.26 610.925 15.96 615.905 15.96C620.585 15.96 624.305 18.84 624.785 24.42H629.405C628.925 16.32 623.585 11.4 615.905 11.4ZM645.263 16.56V54H649.883V16.56H661.103V12H634.043V16.56H645.263ZM678.694 54.6C687.094 54.6 691.414 50.1 691.414 43.38C691.414 36.72 687.574 33.06 681.634 31.38L676.714 30C672.394 28.8 670.474 26.4 670.474 22.56C670.474 18.9 673.174 15.96 678.214 15.96C682.714 15.96 685.234 18.6 686.134 22.62H690.874C689.974 15.48 685.474 11.4 678.214 11.4C671.494 11.4 665.794 15.36 665.794 22.56C665.794 27.66 668.374 32.76 674.614 34.5L679.954 36C684.694 37.32 686.734 39.6 686.734 43.38C686.734 47.82 683.434 50.04 678.694 50.04C674.194 50.04 670.534 46.98 669.814 41.58H665.074C665.674 49.62 671.074 54.6 678.694 54.6Z" fill="#252020"/>
<path d="M46.676 115H55.432V113.328H48.37V99.6H46.676V115ZM64.3456 110.798C64.3456 112.69 63.0256 113.636 61.5516 113.636C60.0776 113.636 58.7576 112.69 58.7576 110.798V107.762C58.7576 105.87 60.0776 104.924 61.5516 104.924C63.0256 104.924 64.3456 105.87 64.3456 107.762V110.798ZM65.9956 107.784C65.9956 104.44 63.6636 103.34 61.5516 103.34C59.4396 103.34 57.1076 104.44 57.1076 107.784V110.776C57.1076 114.12 59.4396 115.22 61.5516 115.22C63.6636 115.22 65.9956 114.12 65.9956 110.776V107.784ZM70.6457 103.648H68.9957V115H70.6457V107.872C70.6457 105.98 71.9657 105.034 73.4397 105.034H74.1657V103.45H73.4397C72.4057 103.45 71.2177 103.912 70.6457 104.836V103.648ZM80.286 113.636C78.812 113.636 77.492 112.69 77.492 110.798V109.698H84.73V107.784C84.73 104.44 82.398 103.34 80.286 103.34C78.174 103.34 75.842 104.44 75.842 107.784V110.776C75.842 114.12 78.174 115.22 80.286 115.22C82.266 115.22 84.422 114.274 84.708 111.436H83.014C82.75 112.91 81.584 113.636 80.286 113.636ZM83.08 108.18H77.492V107.762C77.492 105.87 78.812 104.924 80.286 104.924C81.76 104.924 83.08 105.87 83.08 107.762V108.18ZM103.089 115V107.784C103.089 104.572 100.845 103.34 98.7987 103.34C97.5227 103.34 96.1147 103.868 95.3447 105.122C94.5747 103.868 93.1887 103.34 91.9127 103.34C91.0767 103.34 89.8227 103.802 89.2727 104.726V103.648H87.6227V115H89.2727V107.762C89.2727 105.936 90.5707 104.924 91.9127 104.924C93.2107 104.924 94.5307 105.936 94.5307 107.63V115H96.1807V107.762C96.1807 105.936 97.4787 104.924 98.8207 104.924C100.119 104.924 101.439 105.936 101.439 107.63V115H103.089ZM112.82 99.6H111.17V101.734H112.82V99.6ZM112.82 103.648H111.17V115H112.82V103.648ZM120.555 115.22C122.667 115.22 124.999 114.12 124.999 110.776V107.784C124.999 104.44 122.667 103.34 120.555 103.34C119.521 103.34 118.333 103.802 117.761 104.726V103.648H116.111V119.048H117.761V113.834C118.333 114.758 119.521 115.22 120.555 115.22ZM123.349 110.798C123.349 112.69 122.029 113.636 120.555 113.636C119.081 113.636 117.761 112.69 117.761 110.798V107.762C117.761 105.87 119.081 104.924 120.555 104.924C122.029 104.924 123.349 105.87 123.349 107.762V110.798ZM135.472 106.97C135.296 104.44 133.602 103.34 131.314 103.34C129.224 103.34 127.486 104.55 127.486 106.64C127.486 108.664 129.048 109.5 130.28 109.786L132.502 110.336C133.756 110.644 134.086 111.282 134.086 112.008C134.064 112.998 133.338 113.636 131.754 113.636C130.236 113.636 129.048 112.976 128.894 111.37H127.2C127.376 114.12 129.378 115.22 131.754 115.22C134.064 115.22 135.758 114.296 135.758 112.052C135.758 109.962 134.57 109.104 132.854 108.686L130.72 108.158C129.796 107.938 129.158 107.52 129.158 106.574C129.158 105.54 130.06 104.924 131.292 104.924C132.7 104.924 133.58 105.65 133.778 106.97H135.472ZM142.571 115.22C143.539 115.22 144.727 114.736 145.299 113.834V115H146.949V103.648H145.299V110.798C145.299 112.668 143.957 113.636 142.571 113.636C141.229 113.636 139.843 112.756 139.843 110.732V103.648H138.193V110.842C138.193 114.208 140.701 115.22 142.571 115.22ZM165.716 115V107.784C165.716 104.572 163.472 103.34 161.426 103.34C160.15 103.34 158.742 103.868 157.972 105.122C157.202 103.868 155.816 103.34 154.54 103.34C153.704 103.34 152.45 103.802 151.9 104.726V103.648H150.25V115H151.9V107.762C151.9 105.936 153.198 104.924 154.54 104.924C155.838 104.924 157.158 105.936 157.158 107.63V115H158.808V107.762C158.808 105.936 160.106 104.924 161.448 104.924C162.746 104.924 164.066 105.936 164.066 107.63V115H165.716ZM177.932 115.22C178.966 115.22 180.154 114.758 180.726 113.834V115H182.376V99.6H180.726V104.726C180.154 103.802 178.966 103.34 177.932 103.34C175.82 103.34 173.488 104.44 173.488 107.784V110.776C173.488 114.12 175.82 115.22 177.932 115.22ZM175.138 107.762C175.138 105.87 176.458 104.924 177.932 104.924C179.406 104.924 180.726 105.87 180.726 107.762V110.798C180.726 112.69 179.406 113.636 177.932 113.636C176.458 113.636 175.138 112.69 175.138 110.798V107.762ZM192.607 110.798C192.607 112.69 191.287 113.636 189.813 113.636C188.339 113.636 187.019 112.69 187.019 110.798V107.762C187.019 105.87 188.339 104.924 189.813 104.924C191.287 104.924 192.607 105.87 192.607 107.762V110.798ZM194.257 107.784C194.257 104.44 191.925 103.34 189.813 103.34C187.701 103.34 185.369 104.44 185.369 107.784V110.776C185.369 114.12 187.701 115.22 189.813 115.22C191.925 115.22 194.257 114.12 194.257 110.776V107.784ZM198.863 99.6H197.213V112.294C197.213 114.23 197.807 115 199.919 115H200.271V113.416H199.919C199.127 113.416 198.863 113.152 198.863 112.426V99.6ZM209.773 110.798C209.773 112.69 208.453 113.636 206.979 113.636C205.505 113.636 204.185 112.69 204.185 110.798V107.762C204.185 105.87 205.505 104.924 206.979 104.924C208.453 104.924 209.773 105.87 209.773 107.762V110.798ZM211.423 107.784C211.423 104.44 209.091 103.34 206.979 103.34C204.867 103.34 202.535 104.44 202.535 107.784V110.776C202.535 114.12 204.867 115.22 206.979 115.22C209.091 115.22 211.423 114.12 211.423 110.776V107.784ZM216.073 103.648H214.423V115H216.073V107.872C216.073 105.98 217.393 105.034 218.867 105.034H219.593V103.45H218.867C217.833 103.45 216.645 103.912 216.073 104.836V103.648ZM234.042 106.97C233.866 104.44 232.172 103.34 229.884 103.34C227.794 103.34 226.056 104.55 226.056 106.64C226.056 108.664 227.618 109.5 228.85 109.786L231.072 110.336C232.326 110.644 232.656 111.282 232.656 112.008C232.634 112.998 231.908 113.636 230.324 113.636C228.806 113.636 227.618 112.976 227.464 111.37H225.77C225.946 114.12 227.948 115.22 230.324 115.22C232.634 115.22 234.328 114.296 234.328 112.052C234.328 109.962 233.14 109.104 231.424 108.686L229.29 108.158C228.366 107.938 227.728 107.52 227.728 106.574C227.728 105.54 228.63 104.924 229.862 104.924C231.27 104.924 232.15 105.65 232.348 106.97H234.042ZM238.568 99.6H236.918V101.734H238.568V99.6ZM238.568 103.648H236.918V115H238.568V103.648ZM244.037 105.232H246.831V103.648H244.037V101.074H242.387V103.648H240.781V105.232H242.387V112.294C242.387 114.23 242.981 115 245.093 115H246.831V113.416H245.093C244.301 113.416 244.037 113.152 244.037 112.426V105.232ZM258.302 104.924C259.776 104.924 261.096 105.87 261.096 107.762V107.96C259.182 108.092 257.554 108.224 256.256 108.598C254.276 109.17 253.792 110.71 253.792 111.854C253.792 114.186 255.618 115.22 257.554 115.22C259.094 115.22 260.37 114.78 261.096 113.834V115H262.746V107.784C262.746 104.44 260.414 103.34 258.302 103.34C256.322 103.34 254.166 104.286 253.88 107.124H255.574C255.838 105.65 257.004 104.924 258.302 104.924ZM261.096 110.908C261.096 112.69 259.688 113.636 257.906 113.636C256.234 113.636 255.442 112.844 255.442 111.81C255.442 111.15 255.596 110.644 256.432 110.182C257.202 109.764 258.61 109.61 261.096 109.434V110.908ZM281.366 115V107.784C281.366 104.572 279.122 103.34 277.076 103.34C275.8 103.34 274.392 103.868 273.622 105.122C272.852 103.868 271.466 103.34 270.19 103.34C269.354 103.34 268.1 103.802 267.55 104.726V103.648H265.9V115H267.55V107.762C267.55 105.936 268.848 104.924 270.19 104.924C271.488 104.924 272.808 105.936 272.808 107.63V115H274.458V107.762C274.458 105.936 275.756 104.924 277.098 104.924C278.396 104.924 279.716 105.936 279.716 107.63V115H281.366ZM288.641 113.636C287.167 113.636 285.847 112.69 285.847 110.798V109.698H293.085V107.784C293.085 104.44 290.753 103.34 288.641 103.34C286.529 103.34 284.197 104.44 284.197 107.784V110.776C284.197 114.12 286.529 115.22 288.641 115.22C290.621 115.22 292.777 114.274 293.063 111.436H291.369C291.105 112.91 289.939 113.636 288.641 113.636ZM291.435 108.18H285.847V107.762C285.847 105.87 287.167 104.924 288.641 104.924C290.115 104.924 291.435 105.87 291.435 107.762V108.18ZM298.156 105.232H300.95V103.648H298.156V101.074H296.506V103.648H294.9V105.232H296.506V112.294C296.506 114.23 297.1 115 299.212 115H300.95V113.416H299.212C298.42 113.416 298.156 113.152 298.156 112.426V105.232ZM312.554 103.34C310.442 103.34 308.11 104.44 308.11 107.784V110.776C308.11 114.142 310.442 115.22 312.554 115.22C314.556 115.22 316.734 114.252 316.976 111.326H315.304C315.084 112.866 313.874 113.636 312.554 113.636C311.08 113.636 309.76 112.69 309.76 110.798V107.762C309.76 105.87 311.08 104.924 312.554 104.924C313.874 104.924 315.084 105.694 315.304 107.234H316.976C316.734 104.308 314.556 103.34 312.554 103.34ZM326.67 110.798C326.67 112.69 325.35 113.636 323.876 113.636C322.402 113.636 321.082 112.69 321.082 110.798V107.762C321.082 105.87 322.402 104.924 323.876 104.924C325.35 104.924 326.67 105.87 326.67 107.762V110.798ZM328.32 107.784C328.32 104.44 325.988 103.34 323.876 103.34C321.764 103.34 319.432 104.44 319.432 107.784V110.776C319.432 114.12 321.764 115.22 323.876 115.22C325.988 115.22 328.32 114.12 328.32 110.776V107.784ZM335.764 103.34C334.73 103.34 333.542 103.802 332.97 104.726V103.648H331.32V115H332.97V107.762C332.97 105.87 334.29 104.924 335.764 104.924C337.238 104.924 338.558 105.87 338.558 107.762V115H340.208V107.784C340.208 104.44 337.876 103.34 335.764 103.34ZM350.831 106.97C350.655 104.44 348.961 103.34 346.673 103.34C344.583 103.34 342.845 104.55 342.845 106.64C342.845 108.664 344.407 109.5 345.639 109.786L347.861 110.336C349.115 110.644 349.445 111.282 349.445 112.008C349.423 112.998 348.697 113.636 347.113 113.636C345.595 113.636 344.407 112.976 344.253 111.37H342.559C342.735 114.12 344.737 115.22 347.113 115.22C349.423 115.22 351.117 114.296 351.117 112.052C351.117 109.962 349.929 109.104 348.213 108.686L346.079 108.158C345.155 107.938 344.517 107.52 344.517 106.574C344.517 105.54 345.419 104.924 346.651 104.924C348.059 104.924 348.939 105.65 349.137 106.97H350.831ZM357.843 113.636C356.369 113.636 355.049 112.69 355.049 110.798V109.698H362.287V107.784C362.287 104.44 359.955 103.34 357.843 103.34C355.731 103.34 353.399 104.44 353.399 107.784V110.776C353.399 114.12 355.731 115.22 357.843 115.22C359.823 115.22 361.979 114.274 362.265 111.436H360.571C360.307 112.91 359.141 113.636 357.843 113.636ZM360.637 108.18H355.049V107.762C355.049 105.87 356.369 104.924 357.843 104.924C359.317 104.924 360.637 105.87 360.637 107.762V108.18ZM369.315 103.34C367.203 103.34 364.871 104.44 364.871 107.784V110.776C364.871 114.142 367.203 115.22 369.315 115.22C371.317 115.22 373.495 114.252 373.737 111.326H372.065C371.845 112.866 370.635 113.636 369.315 113.636C367.841 113.636 366.521 112.69 366.521 110.798V107.762C366.521 105.87 367.841 104.924 369.315 104.924C370.635 104.924 371.845 105.694 372.065 107.234H373.737C373.495 104.308 371.317 103.34 369.315 103.34ZM378.68 105.232H381.474V103.648H378.68V101.074H377.03V103.648H375.424V105.232H377.03V112.294C377.03 114.23 377.624 115 379.736 115H381.474V113.416H379.736C378.944 113.416 378.68 113.152 378.68 112.426V105.232ZM388.136 113.636C386.662 113.636 385.342 112.69 385.342 110.798V109.698H392.58V107.784C392.58 104.44 390.248 103.34 388.136 103.34C386.024 103.34 383.692 104.44 383.692 107.784V110.776C383.692 114.12 386.024 115.22 388.136 115.22C390.116 115.22 392.272 114.274 392.558 111.436H390.864C390.6 112.91 389.434 113.636 388.136 113.636ZM390.93 108.18H385.342V107.762C385.342 105.87 386.662 104.924 388.136 104.924C389.61 104.924 390.93 105.87 390.93 107.762V108.18ZM397.65 105.232H400.444V103.648H397.65V101.074H396V103.648H394.394V105.232H396V112.294C396 114.23 396.594 115 398.706 115H400.444V113.416H398.706C397.914 113.416 397.65 113.152 397.65 112.426V105.232ZM407.194 115.22C408.162 115.22 409.35 114.736 409.922 113.834V115H411.572V103.648H409.922V110.798C409.922 112.668 408.58 113.636 407.194 113.636C405.852 113.636 404.466 112.756 404.466 110.732V103.648H402.816V110.842C402.816 114.208 405.324 115.22 407.194 115.22ZM416.523 103.648H414.873V115H416.523V107.872C416.523 105.98 417.843 105.034 419.317 105.034H420.043V103.45H419.317C418.283 103.45 417.095 103.912 416.523 104.836V103.648ZM420.528 115H422.838V112.69H420.528V115ZM440.086 115H441.802L436.852 99.6H434.916L429.966 115H431.682L433.09 110.666H438.678L440.086 115ZM438.172 109.104H433.596L435.884 101.954L438.172 109.104ZM459.235 115V107.784C459.235 104.572 456.991 103.34 454.945 103.34C453.669 103.34 452.261 103.868 451.491 105.122C450.721 103.868 449.335 103.34 448.059 103.34C447.223 103.34 445.969 103.802 445.419 104.726V103.648H443.769V115H445.419V107.762C445.419 105.936 446.717 104.924 448.059 104.924C449.357 104.924 450.677 105.936 450.677 107.63V115H452.327V107.762C452.327 105.936 453.625 104.924 454.967 104.924C456.265 104.924 457.585 105.936 457.585 107.63V115H459.235ZM466.511 113.636C465.037 113.636 463.717 112.69 463.717 110.798V109.698H470.955V107.784C470.955 104.44 468.623 103.34 466.511 103.34C464.399 103.34 462.067 104.44 462.067 107.784V110.776C462.067 114.12 464.399 115.22 466.511 115.22C468.491 115.22 470.647 114.274 470.933 111.436H469.239C468.975 112.91 467.809 113.636 466.511 113.636ZM469.305 108.18H463.717V107.762C463.717 105.87 465.037 104.924 466.511 104.924C467.985 104.924 469.305 105.87 469.305 107.762V108.18ZM476.025 105.232H478.819V103.648H476.025V101.074H474.375V103.648H472.769V105.232H474.375V112.294C474.375 114.23 474.969 115 477.081 115H478.819V113.416H477.081C476.289 113.416 476.025 113.152 476.025 112.426V105.232ZM490.423 113.636C488.949 113.636 487.629 112.69 487.629 110.798V109.698H494.867V107.784C494.867 104.44 492.535 103.34 490.423 103.34C488.311 103.34 485.979 104.44 485.979 107.784V110.776C485.979 114.12 488.311 115.22 490.423 115.22C492.403 115.22 494.559 114.274 494.845 111.436H493.151C492.887 112.91 491.721 113.636 490.423 113.636ZM493.217 108.18H487.629V107.762C487.629 105.87 488.949 104.924 490.423 104.924C491.897 104.924 493.217 105.87 493.217 107.762V108.18ZM505.239 106.97C505.063 104.44 503.369 103.34 501.081 103.34C498.991 103.34 497.253 104.55 497.253 106.64C497.253 108.664 498.815 109.5 500.047 109.786L502.269 110.336C503.523 110.644 503.853 111.282 503.853 112.008C503.831 112.998 503.105 113.636 501.521 113.636C500.003 113.636 498.815 112.976 498.661 111.37H496.967C497.143 114.12 499.145 115.22 501.521 115.22C503.831 115.22 505.525 114.296 505.525 112.052C505.525 109.962 504.337 109.104 502.621 108.686L500.487 108.158C499.563 107.938 498.925 107.52 498.925 106.574C498.925 105.54 499.827 104.924 501.059 104.924C502.467 104.924 503.347 105.65 503.545 106.97H505.239ZM510.293 105.232H513.087V103.648H510.293V101.074H508.643V103.648H507.037V105.232H508.643V112.294C508.643 114.23 509.237 115 511.349 115H513.087V113.416H511.349C510.557 113.416 510.293 113.152 510.293 112.426V105.232ZM524.998 115.22C527.11 115.22 529.442 114.12 529.442 110.776V107.784C529.442 104.44 527.11 103.34 524.998 103.34C523.964 103.34 522.776 103.802 522.204 104.726V103.648H520.554V119.048H522.204V113.834C522.776 114.758 523.964 115.22 524.998 115.22ZM527.792 110.798C527.792 112.69 526.472 113.636 524.998 113.636C523.524 113.636 522.204 112.69 522.204 110.798V107.762C522.204 105.87 523.524 104.924 524.998 104.924C526.472 104.924 527.792 105.87 527.792 107.762V110.798ZM539.365 110.798C539.365 112.69 538.045 113.636 536.571 113.636C535.097 113.636 533.777 112.69 533.777 110.798V107.762C533.777 105.87 535.097 104.924 536.571 104.924C538.045 104.924 539.365 105.87 539.365 107.762V110.798ZM541.015 107.784C541.015 104.44 538.683 103.34 536.571 103.34C534.459 103.34 532.127 104.44 532.127 107.784V110.776C532.127 114.12 534.459 115.22 536.571 115.22C538.683 115.22 541.015 114.12 541.015 110.776V107.784ZM551.495 106.97C551.319 104.44 549.625 103.34 547.337 103.34C545.247 103.34 543.509 104.55 543.509 106.64C543.509 108.664 545.071 109.5 546.303 109.786L548.525 110.336C549.779 110.644 550.109 111.282 550.109 112.008C550.087 112.998 549.361 113.636 547.777 113.636C546.259 113.636 545.071 112.976 544.917 111.37H543.223C543.399 114.12 545.401 115.22 547.777 115.22C550.087 115.22 551.781 114.296 551.781 112.052C551.781 109.962 550.593 109.104 548.877 108.686L546.743 108.158C545.819 107.938 545.181 107.52 545.181 106.574C545.181 105.54 546.083 104.924 547.315 104.924C548.723 104.924 549.603 105.65 549.801 106.97H551.495ZM558.595 115.22C559.563 115.22 560.751 114.736 561.323 113.834V115H562.973V103.648H561.323V110.798C561.323 112.668 559.981 113.636 558.595 113.636C557.253 113.636 555.867 112.756 555.867 110.732V103.648H554.217V110.842C554.217 114.208 556.725 115.22 558.595 115.22ZM570.409 113.636C568.935 113.636 567.615 112.69 567.615 110.798V109.698H574.853V107.784C574.853 104.44 572.521 103.34 570.409 103.34C568.297 103.34 565.965 104.44 565.965 107.784V110.776C565.965 114.12 568.297 115.22 570.409 115.22C572.389 115.22 574.545 114.274 574.831 111.436H573.137C572.873 112.91 571.707 113.636 570.409 113.636ZM573.203 108.18H567.615V107.762C567.615 105.87 568.935 104.924 570.409 104.924C571.883 104.924 573.203 105.87 573.203 107.762V108.18ZM579.396 103.648H577.746V115H579.396V107.872C579.396 105.98 580.716 105.034 582.19 105.034H582.916V103.45H582.19C581.156 103.45 579.968 103.912 579.396 104.836V103.648ZM589.036 113.636C587.562 113.636 586.242 112.69 586.242 110.798V109.698H593.48V107.784C593.48 104.44 591.148 103.34 589.036 103.34C586.924 103.34 584.592 104.44 584.592 107.784V110.776C584.592 114.12 586.924 115.22 589.036 115.22C591.016 115.22 593.172 114.274 593.458 111.436H591.764C591.5 112.91 590.334 113.636 589.036 113.636ZM591.83 108.18H586.242V107.762C586.242 105.87 587.562 104.924 589.036 104.924C590.51 104.924 591.83 105.87 591.83 107.762V108.18ZM602.964 103.648H601.314V115H602.964V107.872C602.964 105.98 604.284 105.034 605.758 105.034H606.484V103.45H605.758C604.724 103.45 603.536 103.912 602.964 104.836V103.648ZM612.955 103.34C611.921 103.34 610.733 103.802 610.161 104.726V99.6H608.511V115H610.161V107.762C610.161 105.87 611.481 104.924 612.955 104.924C614.429 104.924 615.749 105.87 615.749 107.762V115H617.399V107.784C617.399 104.44 615.067 103.34 612.955 103.34ZM627.473 110.798C627.473 112.69 626.153 113.636 624.679 113.636C623.205 113.636 621.885 112.69 621.885 110.798V107.762C621.885 105.87 623.205 104.924 624.679 104.924C626.153 104.924 627.473 105.87 627.473 107.762V110.798ZM629.123 107.784C629.123 104.44 626.791 103.34 624.679 103.34C622.567 103.34 620.235 104.44 620.235 107.784V110.776C620.235 114.12 622.567 115.22 624.679 115.22C626.791 115.22 629.123 114.12 629.123 110.776V107.784ZM636.567 103.34C635.533 103.34 634.345 103.802 633.773 104.726V103.648H632.123V115H633.773V107.762C633.773 105.87 635.093 104.924 636.567 104.924C638.041 104.924 639.361 105.87 639.361 107.762V115H641.011V107.784C641.011 104.44 638.679 103.34 636.567 103.34ZM648.29 103.34C646.178 103.34 643.846 104.44 643.846 107.784V110.776C643.846 114.142 646.178 115.22 648.29 115.22C650.292 115.22 652.47 114.252 652.712 111.326H651.04C650.82 112.866 649.61 113.636 648.29 113.636C646.816 113.636 645.496 112.69 645.496 110.798V107.762C645.496 105.87 646.816 104.924 648.29 104.924C649.61 104.924 650.82 105.694 651.04 107.234H652.712C652.47 104.308 650.292 103.34 648.29 103.34ZM659.7 115.22C660.668 115.22 661.856 114.736 662.428 113.834V115H664.078V103.648H662.428V110.798C662.428 112.668 661.086 113.636 659.7 113.636C658.358 113.636 656.972 112.756 656.972 110.732V103.648H655.322V110.842C655.322 114.208 657.83 115.22 659.7 115.22ZM674.859 106.97C674.683 104.44 672.989 103.34 670.701 103.34C668.611 103.34 666.873 104.55 666.873 106.64C666.873 108.664 668.435 109.5 669.667 109.786L671.889 110.336C673.143 110.644 673.473 111.282 673.473 112.008C673.451 112.998 672.725 113.636 671.141 113.636C669.623 113.636 668.435 112.976 668.281 111.37H666.587C666.763 114.12 668.765 115.22 671.141 115.22C673.451 115.22 675.145 114.296 675.145 112.052C675.145 109.962 673.957 109.104 672.241 108.686L670.107 108.158C669.183 107.938 668.545 107.52 668.545 106.574C668.545 105.54 669.447 104.924 670.679 104.924C672.087 104.924 672.967 105.65 673.165 106.97H674.859ZM31.9708 146.97C31.7948 144.44 30.1008 143.34 27.8128 143.34C25.7228 143.34 23.9848 144.55 23.9848 146.64C23.9848 148.664 25.5468 149.5 26.7788 149.786L29.0008 150.336C30.2548 150.644 30.5848 151.282 30.5848 152.008C30.5628 152.998 29.8368 153.636 28.2528 153.636C26.7348 153.636 25.5468 152.976 25.3928 151.37H23.6988C23.8748 154.12 25.8768 155.22 28.2528 155.22C30.5628 155.22 32.2568 154.296 32.2568 152.052C32.2568 149.962 31.0688 149.104 29.3528 148.686L27.2188 148.158C26.2948 147.938 25.6568 147.52 25.6568 146.574C25.6568 145.54 26.5588 144.924 27.7908 144.924C29.1988 144.924 30.0788 145.65 30.2768 146.97H31.9708ZM38.9823 143.34C36.8703 143.34 34.5383 144.44 34.5383 147.784V150.776C34.5383 154.142 36.8703 155.22 38.9823 155.22C40.9843 155.22 43.1623 154.252 43.4043 151.326H41.7323C41.5123 152.866 40.3023 153.636 38.9823 153.636C37.5083 153.636 36.1883 152.69 36.1883 150.798V147.762C36.1883 145.87 37.5083 144.924 38.9823 144.924C40.3023 144.924 41.5123 145.694 41.7323 147.234H43.4043C43.1623 144.308 40.9843 143.34 38.9823 143.34ZM50.3046 153.636C48.8306 153.636 47.5106 152.69 47.5106 150.798V149.698H54.7486V147.784C54.7486 144.44 52.4166 143.34 50.3046 143.34C48.1926 143.34 45.8606 144.44 45.8606 147.784V150.776C45.8606 154.12 48.1926 155.22 50.3046 155.22C52.2846 155.22 54.4406 154.274 54.7266 151.436H53.0326C52.7686 152.91 51.6026 153.636 50.3046 153.636ZM53.0986 148.18H47.5106V147.762C47.5106 145.87 48.8306 144.924 50.3046 144.924C51.7786 144.924 53.0986 145.87 53.0986 147.762V148.18ZM59.2472 139.6H57.5972V152.294C57.5972 154.23 58.1912 155 60.3032 155H60.6552V153.416H60.3032C59.5112 153.416 59.2472 153.152 59.2472 152.426V139.6ZM67.3631 153.636C65.8891 153.636 64.5691 152.69 64.5691 150.798V149.698H71.8071V147.784C71.8071 144.44 69.4751 143.34 67.3631 143.34C65.2511 143.34 62.9191 144.44 62.9191 147.784V150.776C62.9191 154.12 65.2511 155.22 67.3631 155.22C69.3431 155.22 71.4991 154.274 71.7851 151.436H70.0911C69.8271 152.91 68.6611 153.636 67.3631 153.636ZM70.1571 148.18H64.5691V147.762C64.5691 145.87 65.8891 144.924 67.3631 144.924C68.8371 144.924 70.1571 145.87 70.1571 147.762V148.18ZM76.3498 143.648H74.6998V155H76.3498V147.872C76.3498 145.98 77.6698 145.034 79.1438 145.034H79.8698V143.45H79.1438C78.1098 143.45 76.9218 143.912 76.3498 144.836V143.648ZM83.5471 139.6H81.8971V141.734H83.5471V139.6ZM83.5471 143.648H81.8971V155H83.5471V143.648ZM94.3185 146.97C94.1425 144.44 92.4485 143.34 90.1605 143.34C88.0705 143.34 86.3325 144.55 86.3325 146.64C86.3325 148.664 87.8945 149.5 89.1265 149.786L91.3485 150.336C92.6025 150.644 92.9325 151.282 92.9325 152.008C92.9105 152.998 92.1845 153.636 90.6005 153.636C89.0825 153.636 87.8945 152.976 87.7405 151.37H86.0465C86.2225 154.12 88.2245 155.22 90.6005 155.22C92.9105 155.22 94.6045 154.296 94.6045 152.052C94.6045 149.962 93.4165 149.104 91.7005 148.686L89.5665 148.158C88.6425 147.938 88.0045 147.52 88.0045 146.574C88.0045 145.54 88.9065 144.924 90.1385 144.924C91.5465 144.924 92.4265 145.65 92.6245 146.97H94.3185ZM101.33 155.22C102.364 155.22 103.552 154.758 104.124 153.834V159.048H105.774V143.648H104.124V144.726C103.552 143.802 102.364 143.34 101.33 143.34C99.2179 143.34 96.8859 144.44 96.8859 147.784V150.776C96.8859 154.12 99.2179 155.22 101.33 155.22ZM98.5359 147.762C98.5359 145.87 99.8559 144.924 101.33 144.924C102.804 144.924 104.124 145.87 104.124 147.762V150.798C104.124 152.69 102.804 153.636 101.33 153.636C99.8559 153.636 98.5359 152.69 98.5359 150.798V147.762ZM113.299 155.22C114.267 155.22 115.455 154.736 116.027 153.834V155H117.677V143.648H116.027V150.798C116.027 152.668 114.685 153.636 113.299 153.636C111.957 153.636 110.571 152.756 110.571 150.732V143.648H108.921V150.842C108.921 154.208 111.429 155.22 113.299 155.22ZM125.113 153.636C123.639 153.636 122.319 152.69 122.319 150.798V149.698H129.557V147.784C129.557 144.44 127.225 143.34 125.113 143.34C123.001 143.34 120.669 144.44 120.669 147.784V150.776C120.669 154.12 123.001 155.22 125.113 155.22C127.093 155.22 129.249 154.274 129.535 151.436H127.841C127.577 152.91 126.411 153.636 125.113 153.636ZM127.907 148.18H122.319V147.762C122.319 145.87 123.639 144.924 125.113 144.924C126.587 144.924 127.907 145.87 127.907 147.762V148.18ZM132.348 155H134.658V152.69H132.348V155ZM143.238 139.6V155H148.21C151.158 155 153.182 153.02 153.182 149.786V144.814C153.182 141.58 151.158 139.6 148.21 139.6H143.238ZM148.21 141.272C150.036 141.294 151.488 142.482 151.488 144.814V149.786C151.488 152.118 150.036 153.328 148.21 153.328H144.932V141.272H148.21ZM163.056 150.798C163.056 152.69 161.736 153.636 160.262 153.636C158.788 153.636 157.468 152.69 157.468 150.798V147.762C157.468 145.87 158.788 144.924 160.262 144.924C161.736 144.924 163.056 145.87 163.056 147.762V150.798ZM164.706 147.784C164.706 144.44 162.374 143.34 160.262 143.34C158.15 143.34 155.818 144.44 155.818 147.784V150.776C155.818 154.12 158.15 155.22 160.262 155.22C162.374 155.22 164.706 154.12 164.706 150.776V147.784ZM169.312 139.6H167.662V152.294C167.662 154.23 168.256 155 170.368 155H170.72V153.416H170.368C169.576 153.416 169.312 153.152 169.312 152.426V139.6ZM180.222 150.798C180.222 152.69 178.902 153.636 177.428 153.636C175.954 153.636 174.634 152.69 174.634 150.798V147.762C174.634 145.87 175.954 144.924 177.428 144.924C178.902 144.924 180.222 145.87 180.222 147.762V150.798ZM181.872 147.784C181.872 144.44 179.54 143.34 177.428 143.34C175.316 143.34 172.984 144.44 172.984 147.784V150.776C172.984 154.12 175.316 155.22 177.428 155.22C179.54 155.22 181.872 154.12 181.872 150.776V147.784ZM186.522 143.648H184.872V155H186.522V147.872C186.522 145.98 187.842 145.034 189.316 145.034H190.042V143.45H189.316C188.282 143.45 187.094 143.912 186.522 144.836V143.648ZM198.66 139.6H197.01V141.734H198.66V139.6ZM198.66 143.648H197.01V155H198.66V143.648ZM206.396 143.34C205.362 143.34 204.174 143.802 203.602 144.726V143.648H201.952V155H203.602V147.762C203.602 145.87 204.922 144.924 206.396 144.924C207.87 144.924 209.19 145.87 209.19 147.762V155H210.84V147.784C210.84 144.44 208.508 143.34 206.396 143.34ZM216.161 145.232H218.955V143.648H216.161V141.074H214.511V143.648H212.905V145.232H214.511V152.294C214.511 154.23 215.105 155 217.217 155H218.955V153.416H217.217C216.425 153.416 216.161 153.152 216.161 152.426V145.232ZM225.617 153.636C224.143 153.636 222.823 152.69 222.823 150.798V149.698H230.061V147.784C230.061 144.44 227.729 143.34 225.617 143.34C223.505 143.34 221.173 144.44 221.173 147.784V150.776C221.173 154.12 223.505 155.22 225.617 155.22C227.597 155.22 229.753 154.274 230.039 151.436H228.345C228.081 152.91 226.915 153.636 225.617 153.636ZM228.411 148.18H222.823V147.762C222.823 145.87 224.143 144.924 225.617 144.924C227.091 144.924 228.411 145.87 228.411 147.762V148.18ZM237.068 157.684C235.748 157.684 234.538 156.914 234.318 155.374H232.646C232.888 158.3 235.066 159.268 237.068 159.268C239.18 159.268 241.512 158.19 241.512 154.824V143.648H239.862V144.726C239.29 143.802 238.102 143.34 237.068 143.34C234.956 143.34 232.624 144.44 232.624 147.784V150.336C232.624 153.68 234.956 154.78 237.068 154.78C238.102 154.78 239.29 154.318 239.862 153.394V154.846C239.862 156.738 238.542 157.684 237.068 157.684ZM234.274 147.762C234.274 145.87 235.594 144.924 237.068 144.924C238.542 144.924 239.862 145.87 239.862 147.762V150.358C239.862 152.25 238.542 153.196 237.068 153.196C235.594 153.196 234.274 152.25 234.274 150.358V147.762ZM248.949 153.636C247.475 153.636 246.155 152.69 246.155 150.798V149.698H253.393V147.784C253.393 144.44 251.061 143.34 248.949 143.34C246.837 143.34 244.505 144.44 244.505 147.784V150.776C244.505 154.12 246.837 155.22 248.949 155.22C250.929 155.22 253.085 154.274 253.371 151.436H251.677C251.413 152.91 250.247 153.636 248.949 153.636ZM251.743 148.18H246.155V147.762C246.155 145.87 247.475 144.924 248.949 144.924C250.423 144.924 251.743 145.87 251.743 147.762V148.18ZM257.936 143.648H256.286V155H257.936V147.872C257.936 145.98 259.256 145.034 260.73 145.034H261.456V143.45H260.73C259.696 143.45 258.508 143.912 257.936 144.836V143.648ZM275.904 146.97C275.728 144.44 274.034 143.34 271.746 143.34C269.656 143.34 267.918 144.55 267.918 146.64C267.918 148.664 269.48 149.5 270.712 149.786L272.934 150.336C274.188 150.644 274.518 151.282 274.518 152.008C274.496 152.998 273.77 153.636 272.186 153.636C270.668 153.636 269.48 152.976 269.326 151.37H267.632C267.808 154.12 269.81 155.22 272.186 155.22C274.496 155.22 276.19 154.296 276.19 152.052C276.19 149.962 275.002 149.104 273.286 148.686L271.152 148.158C270.228 147.938 269.59 147.52 269.59 146.574C269.59 145.54 270.492 144.924 271.724 144.924C273.132 144.924 274.012 145.65 274.21 146.97H275.904ZM282.916 143.34C280.804 143.34 278.472 144.44 278.472 147.784V150.776C278.472 154.142 280.804 155.22 282.916 155.22C284.918 155.22 287.096 154.252 287.338 151.326H285.666C285.446 152.866 284.236 153.636 282.916 153.636C281.442 153.636 280.122 152.69 280.122 150.798V147.762C280.122 145.87 281.442 144.924 282.916 144.924C284.236 144.924 285.446 145.694 285.666 147.234H287.338C287.096 144.308 284.918 143.34 282.916 143.34ZM294.238 153.636C292.764 153.636 291.444 152.69 291.444 150.798V149.698H298.682V147.784C298.682 144.44 296.35 143.34 294.238 143.34C292.126 143.34 289.794 144.44 289.794 147.784V150.776C289.794 154.12 292.126 155.22 294.238 155.22C296.218 155.22 298.374 154.274 298.66 151.436H296.966C296.702 152.91 295.536 153.636 294.238 153.636ZM297.032 148.18H291.444V147.762C291.444 145.87 292.764 144.924 294.238 144.924C295.712 144.924 297.032 145.87 297.032 147.762V148.18ZM303.181 139.6H301.531V152.294C301.531 154.23 302.125 155 304.237 155H304.589V153.416H304.237C303.445 153.416 303.181 153.152 303.181 152.426V139.6ZM311.297 153.636C309.823 153.636 308.503 152.69 308.503 150.798V149.698H315.741V147.784C315.741 144.44 313.409 143.34 311.297 143.34C309.185 143.34 306.853 144.44 306.853 147.784V150.776C306.853 154.12 309.185 155.22 311.297 155.22C313.277 155.22 315.433 154.274 315.719 151.436H314.025C313.761 152.91 312.595 153.636 311.297 153.636ZM314.091 148.18H308.503V147.762C308.503 145.87 309.823 144.924 311.297 144.924C312.771 144.924 314.091 145.87 314.091 147.762V148.18ZM320.283 143.648H318.633V155H320.283V147.872C320.283 145.98 321.603 145.034 323.077 145.034H323.803V143.45H323.077C322.043 143.45 320.855 143.912 320.283 144.836V143.648ZM327.481 139.6H325.831V141.734H327.481V139.6ZM327.481 143.648H325.831V155H327.481V143.648ZM338.252 146.97C338.076 144.44 336.382 143.34 334.094 143.34C332.004 143.34 330.266 144.55 330.266 146.64C330.266 148.664 331.828 149.5 333.06 149.786L335.282 150.336C336.536 150.644 336.866 151.282 336.866 152.008C336.844 152.998 336.118 153.636 334.534 153.636C333.016 153.636 331.828 152.976 331.674 151.37H329.98C330.156 154.12 332.158 155.22 334.534 155.22C336.844 155.22 338.538 154.296 338.538 152.052C338.538 149.962 337.35 149.104 335.634 148.686L333.5 148.158C332.576 147.938 331.938 147.52 331.938 146.574C331.938 145.54 332.84 144.924 334.072 144.924C335.48 144.924 336.36 145.65 336.558 146.97H338.252ZM345.264 155.22C346.298 155.22 347.486 154.758 348.058 153.834V159.048H349.708V143.648H348.058V144.726C347.486 143.802 346.298 143.34 345.264 143.34C343.152 143.34 340.82 144.44 340.82 147.784V150.776C340.82 154.12 343.152 155.22 345.264 155.22ZM342.47 147.762C342.47 145.87 343.79 144.924 345.264 144.924C346.738 144.924 348.058 145.87 348.058 147.762V150.798C348.058 152.69 346.738 153.636 345.264 153.636C343.79 153.636 342.47 152.69 342.47 150.798V147.762ZM357.232 155.22C358.2 155.22 359.388 154.736 359.96 153.834V155H361.61V143.648H359.96V150.798C359.96 152.668 358.618 153.636 357.232 153.636C355.89 153.636 354.504 152.756 354.504 150.732V143.648H352.854V150.842C352.854 154.208 355.362 155.22 357.232 155.22ZM369.047 153.636C367.573 153.636 366.253 152.69 366.253 150.798V149.698H373.491V147.784C373.491 144.44 371.159 143.34 369.047 143.34C366.935 143.34 364.603 144.44 364.603 147.784V150.776C364.603 154.12 366.935 155.22 369.047 155.22C371.027 155.22 373.183 154.274 373.469 151.436H371.775C371.511 152.91 370.345 153.636 369.047 153.636ZM371.841 148.18H366.253V147.762C366.253 145.87 367.573 144.924 369.047 144.924C370.521 144.924 371.841 145.87 371.841 147.762V148.18ZM385.769 143.34C384.735 143.34 383.547 143.802 382.975 144.726V143.648H381.325V155H382.975V147.762C382.975 145.87 384.295 144.924 385.769 144.924C387.243 144.924 388.563 145.87 388.563 147.762V155H390.213V147.784C390.213 144.44 387.881 143.34 385.769 143.34ZM395.006 139.6H393.356V141.734H395.006V139.6ZM395.006 143.648H393.356V155H395.006V143.648ZM402.741 155.22C404.853 155.22 407.185 154.12 407.185 150.776V147.784C407.185 144.44 404.853 143.34 402.741 143.34C401.707 143.34 400.519 143.802 399.947 144.726V139.6H398.297V155H399.947V153.834C400.519 154.758 401.707 155.22 402.741 155.22ZM405.535 150.798C405.535 152.69 404.215 153.636 402.741 153.636C401.267 153.636 399.947 152.69 399.947 150.798V147.762C399.947 145.87 401.267 144.924 402.741 144.924C404.215 144.924 405.535 145.87 405.535 147.762V150.798ZM414.622 143.34C413.588 143.34 412.4 143.802 411.828 144.726V139.6H410.178V155H411.828V147.762C411.828 145.87 413.148 144.924 414.622 144.924C416.096 144.924 417.416 145.87 417.416 147.762V155H419.066V147.784C419.066 144.44 416.734 143.34 414.622 143.34ZM431.155 144.924C432.629 144.924 433.949 145.87 433.949 147.762V147.96C432.035 148.092 430.407 148.224 429.109 148.598C427.129 149.17 426.645 150.71 426.645 151.854C426.645 154.186 428.471 155.22 430.407 155.22C431.947 155.22 433.223 154.78 433.949 153.834V155H435.599V147.784C435.599 144.44 433.267 143.34 431.155 143.34C429.175 143.34 427.019 144.286 426.733 147.124H428.427C428.691 145.65 429.857 144.924 431.155 144.924ZM433.949 150.908C433.949 152.69 432.541 153.636 430.759 153.636C429.087 153.636 428.295 152.844 428.295 151.81C428.295 151.15 428.449 150.644 429.285 150.182C430.055 149.764 431.463 149.61 433.949 149.434V150.908ZM454.219 155V147.784C454.219 144.572 451.975 143.34 449.929 143.34C448.653 143.34 447.245 143.868 446.475 145.122C445.705 143.868 444.319 143.34 443.043 143.34C442.207 143.34 440.953 143.802 440.403 144.726V143.648H438.753V155H440.403V147.762C440.403 145.936 441.701 144.924 443.043 144.924C444.341 144.924 445.661 145.936 445.661 147.63V155H447.311V147.762C447.311 145.936 448.609 144.924 449.951 144.924C451.249 144.924 452.569 145.936 452.569 147.63V155H454.219ZM461.494 153.636C460.02 153.636 458.7 152.69 458.7 150.798V149.698H465.938V147.784C465.938 144.44 463.606 143.34 461.494 143.34C459.382 143.34 457.05 144.44 457.05 147.784V150.776C457.05 154.12 459.382 155.22 461.494 155.22C463.474 155.22 465.63 154.274 465.916 151.436H464.222C463.958 152.91 462.792 153.636 461.494 153.636ZM464.288 148.18H458.7V147.762C458.7 145.87 460.02 144.924 461.494 144.924C462.968 144.924 464.288 145.87 464.288 147.762V148.18ZM471.009 145.232H473.803V143.648H471.009V141.074H469.359V143.648H467.753V145.232H469.359V152.294C469.359 154.23 469.953 155 472.065 155H473.803V153.416H472.065C471.273 153.416 471.009 153.152 471.009 152.426V145.232ZM496.736 155V147.784C496.736 144.572 494.492 143.34 492.446 143.34C491.17 143.34 489.762 143.868 488.992 145.122C488.222 143.868 486.836 143.34 485.56 143.34C484.724 143.34 483.47 143.802 482.92 144.726V143.648H481.27V155H482.92V147.762C482.92 145.936 484.218 144.924 485.56 144.924C486.858 144.924 488.178 145.936 488.178 147.63V155H489.828V147.762C489.828 145.936 491.126 144.924 492.468 144.924C493.766 144.924 495.086 145.936 495.086 147.63V155H496.736ZM501.526 139.6H499.876V141.734H501.526V139.6ZM501.526 143.648H499.876V155H501.526V143.648ZM513.982 155.22C514.95 155.22 516.138 154.736 516.71 153.834V155H518.36V143.648H516.71V150.798C516.71 152.668 515.368 153.636 513.982 153.636C512.64 153.636 511.254 152.756 511.254 150.732V143.648H509.604V150.842C509.604 154.208 512.112 155.22 513.982 155.22ZM523.839 145.232H526.633V143.648H523.839V141.074H522.189V143.648H520.583V145.232H522.189V152.294C522.189 154.23 522.783 155 524.895 155H526.633V153.416H524.895C524.103 153.416 523.839 153.152 523.839 152.426V145.232ZM538.236 153.636C536.762 153.636 535.442 152.69 535.442 150.798V149.698H542.68V147.784C542.68 144.44 540.348 143.34 538.236 143.34C536.124 143.34 533.792 144.44 533.792 147.784V150.776C533.792 154.12 536.124 155.22 538.236 155.22C540.216 155.22 542.372 154.274 542.658 151.436H540.964C540.7 152.91 539.534 153.636 538.236 153.636ZM541.03 148.18H535.442V147.762C535.442 145.87 536.762 144.924 538.236 144.924C539.71 144.924 541.03 145.87 541.03 147.762V148.18ZM547.179 139.6H545.529V152.294C545.529 154.23 546.123 155 548.235 155H548.587V153.416H548.235C547.443 153.416 547.179 153.152 547.179 152.426V139.6ZM555.295 153.636C553.821 153.636 552.501 152.69 552.501 150.798V149.698H559.739V147.784C559.739 144.44 557.407 143.34 555.295 143.34C553.183 143.34 550.851 144.44 550.851 147.784V150.776C550.851 154.12 553.183 155.22 555.295 155.22C557.275 155.22 559.431 154.274 559.717 151.436H558.023C557.759 152.91 556.593 153.636 555.295 153.636ZM558.089 148.18H552.501V147.762C552.501 145.87 553.821 144.924 555.295 144.924C556.769 144.924 558.089 145.87 558.089 147.762V148.18ZM578.097 155V147.784C578.097 144.572 575.853 143.34 573.807 143.34C572.531 143.34 571.123 143.868 570.353 145.122C569.583 143.868 568.197 143.34 566.921 143.34C566.085 143.34 564.831 143.802 564.281 144.726V143.648H562.631V155H564.281V147.762C564.281 145.936 565.579 144.924 566.921 144.924C568.219 144.924 569.539 145.936 569.539 147.63V155H571.189V147.762C571.189 145.936 572.487 144.924 573.829 144.924C575.127 144.924 576.447 145.936 576.447 147.63V155H578.097ZM585.373 153.636C583.899 153.636 582.579 152.69 582.579 150.798V149.698H589.817V147.784C589.817 144.44 587.485 143.34 585.373 143.34C583.261 143.34 580.929 144.44 580.929 147.784V150.776C580.929 154.12 583.261 155.22 585.373 155.22C587.353 155.22 589.509 154.274 589.795 151.436H588.101C587.837 152.91 586.671 153.636 585.373 153.636ZM588.167 148.18H582.579V147.762C582.579 145.87 583.899 144.924 585.373 144.924C586.847 144.924 588.167 145.87 588.167 147.762V148.18ZM597.154 143.34C596.12 143.34 594.932 143.802 594.36 144.726V143.648H592.71V155H594.36V147.762C594.36 145.87 595.68 144.924 597.154 144.924C598.628 144.924 599.948 145.87 599.948 147.762V155H601.598V147.784C601.598 144.44 599.266 143.34 597.154 143.34ZM606.919 145.232H609.713V143.648H606.919V141.074H605.269V143.648H603.663V145.232H605.269V152.294C605.269 154.23 605.863 155 607.975 155H609.713V153.416H607.975C607.183 153.416 606.919 153.152 606.919 152.426V145.232ZM616.463 155.22C617.431 155.22 618.619 154.736 619.191 153.834V155H620.841V143.648H619.191V150.798C619.191 152.668 617.849 153.636 616.463 153.636C615.121 153.636 613.735 152.756 613.735 150.732V143.648H612.085V150.842C612.085 154.208 614.593 155.22 616.463 155.22ZM639.607 155V147.784C639.607 144.572 637.363 143.34 635.317 143.34C634.041 143.34 632.633 143.868 631.863 145.122C631.093 143.868 629.707 143.34 628.431 143.34C627.595 143.34 626.341 143.802 625.791 144.726V143.648H624.141V155H625.791V147.762C625.791 145.936 627.089 144.924 628.431 144.924C629.729 144.924 631.049 145.936 631.049 147.63V155H632.699V147.762C632.699 145.936 633.997 144.924 635.339 144.924C636.637 144.924 637.957 145.936 637.957 147.63V155H639.607ZM651.824 155.22C652.858 155.22 654.046 154.758 654.618 153.834V155H656.268V139.6H654.618V144.726C654.046 143.802 652.858 143.34 651.824 143.34C649.712 143.34 647.38 144.44 647.38 147.784V150.776C647.38 154.12 649.712 155.22 651.824 155.22ZM649.03 147.762C649.03 145.87 650.35 144.924 651.824 144.924C653.298 144.924 654.618 145.87 654.618 147.762V150.798C654.618 152.69 653.298 153.636 651.824 153.636C650.35 153.636 649.03 152.69 649.03 150.798V147.762ZM666.499 150.798C666.499 152.69 665.179 153.636 663.705 153.636C662.231 153.636 660.911 152.69 660.911 150.798V147.762C660.911 145.87 662.231 144.924 663.705 144.924C665.179 144.924 666.499 145.87 666.499 147.762V150.798ZM668.149 147.784C668.149 144.44 665.817 143.34 663.705 143.34C661.593 143.34 659.261 144.44 659.261 147.784V150.776C659.261 154.12 661.593 155.22 663.705 155.22C665.817 155.22 668.149 154.12 668.149 150.776V147.784ZM672.755 139.6H671.105V152.294C671.105 154.23 671.699 155 673.811 155H674.163V153.416H673.811C673.019 153.416 672.755 153.152 672.755 152.426V139.6ZM683.665 150.798C683.665 152.69 682.345 153.636 680.871 153.636C679.397 153.636 678.077 152.69 678.077 150.798V147.762C678.077 145.87 679.397 144.924 680.871 144.924C682.345 144.924 683.665 145.87 683.665 147.762V150.798ZM685.315 147.784C685.315 144.44 682.983 143.34 680.871 143.34C678.759 143.34 676.427 144.44 676.427 147.784V150.776C676.427 154.12 678.759 155.22 680.871 155.22C682.983 155.22 685.315 154.12 685.315 150.776V147.784ZM689.965 143.648H688.315V155H689.965V147.872C689.965 145.98 691.285 145.034 692.759 145.034H693.485V143.45H692.759C691.725 143.45 690.537 143.912 689.965 144.836V143.648ZM693.971 155H696.281V152.69H693.971V155Z" fill="#252020"/>
</svg>
