<svg width="52" height="24" viewBox="0 0 52 24" fill="none" xmlns="http://www.w3.org/2000/svg">
<path d="M5.6 18.2C2.54 18.2 0.56 16.36 0.42 13.58H3.18C3.34 14.76 4.26 15.54 5.6 15.54C6.78 15.54 7.6 15.1 7.6 14.14C7.6 13.36 7.14 12.92 6.16 12.66L3.8 12.02C1.66 11.44 0.6 9.94 0.6 7.88C0.6 5.08 2.8 3.8 5.24 3.8C8.04 3.8 9.78 5.44 10.08 7.82H7.32C7.08 6.88 6.1 6.46 5.2 6.46C4.08 6.46 3.28 6.9 3.28 7.88C3.28 8.7 3.92 9.06 4.68 9.26L6.96 9.88C9.12 10.46 10.28 11.78 10.28 14.14C10.28 16.66 8.64 18.2 5.6 18.2ZM21.0003 9.6V4H23.6803V18H21.0003V12.26H15.8003V18H13.1203V4H15.8003V9.6H21.0003ZM37.4244 13.02C37.4244 16.12 35.5044 18.2 32.1444 18.2C28.7844 18.2 26.8644 16.12 26.8644 13.02V8.98C26.8644 5.88 28.7844 3.8 32.1444 3.8C35.5044 3.8 37.4244 5.88 37.4244 8.98V13.02ZM34.7444 13.02V8.98C34.7444 7.36 33.6044 6.46 32.1444 6.46C30.6844 6.46 29.5444 7.36 29.5444 8.98V13.02C29.5444 14.64 30.6844 15.54 32.1444 15.54C33.6044 15.54 34.7444 14.64 34.7444 13.02ZM43.2886 11.04H46.3286C47.8086 11.04 48.4886 9.92 48.4886 8.84C48.4886 7.76 47.8086 6.66 46.3286 6.66H43.2886V11.04ZM43.2886 13.7V18H40.6086V4H46.3286C49.6486 4 51.1686 6.28 51.1686 8.84C51.1686 11.38 49.6486 13.7 46.3286 13.7H43.2886Z" fill="#252020"/>
</svg>
