<svg width="257" height="16" viewBox="0 0 257 16" fill="none" xmlns="http://www.w3.org/2000/svg">
<path d="M4.208 12.16C2.176 12.16 0.736 10.832 0.576 8.688H1.84C2.032 10.128 3.008 10.944 4.208 10.944C5.472 10.944 6.352 10.352 6.352 9.168C6.352 8.16 5.808 7.552 4.544 7.2L3.12 6.8C1.456 6.336 0.768 4.976 0.768 3.616C0.768 1.696 2.288 0.639999 4.08 0.639999C6.016 0.639999 7.216 1.728 7.456 3.632H6.192C5.952 2.56 5.28 1.856 4.08 1.856C2.736 1.856 2.016 2.64 2.016 3.616C2.016 4.64 2.528 5.28 3.68 5.6L4.992 5.968C6.576 6.416 7.6 7.392 7.6 9.168C7.6 10.96 6.448 12.16 4.208 12.16ZM10.6656 0.799999V2.352H9.46563V0.799999H10.6656ZM10.6656 3.744V12H9.46563V3.744H10.6656ZM16.0514 13.952C17.1234 13.952 18.0834 13.264 18.0834 11.888V10.832C17.6674 11.504 16.8034 11.84 16.0514 11.84C14.5154 11.84 12.8194 11.04 12.8194 8.608V6.752C12.8194 4.32 14.5154 3.52 16.0514 3.52C16.8034 3.52 17.6674 3.856 18.0834 4.528V3.744H19.2834V11.872C19.2834 14.32 17.5874 15.104 16.0514 15.104C14.5954 15.104 13.0114 14.4 12.8354 12.272H14.0514C14.2114 13.392 15.0914 13.952 16.0514 13.952ZM14.0194 6.736V8.624C14.0194 10 14.9794 10.688 16.0514 10.688C17.1234 10.688 18.0834 10 18.0834 8.624V6.736C18.0834 5.36 17.1234 4.672 16.0514 4.672C14.9794 4.672 14.0194 5.36 14.0194 6.736ZM24.9164 3.52C26.4524 3.52 28.1484 4.32 28.1484 6.752V12H26.9484V6.736C26.9484 5.36 25.9884 4.672 24.9164 4.672C23.8444 4.672 22.8844 5.36 22.8844 6.736V12H21.6844V3.744H22.8844V4.528C23.3004 3.856 24.1644 3.52 24.9164 3.52ZM37.1001 12.16C35.7401 12.16 33.9161 11.424 33.9161 8.976V3.744H35.1161V8.896C35.1161 10.368 36.1241 11.008 37.1001 11.008C38.1081 11.008 39.0841 10.304 39.0841 8.944V3.744H40.2841V12H39.0841V11.152C38.6681 11.808 37.8041 12.16 37.1001 12.16ZM45.9164 12.16C45.1644 12.16 44.3004 11.824 43.8844 11.152V14.944H42.6844V3.744H43.8844V4.528C44.3004 3.856 45.1644 3.52 45.9164 3.52C47.4524 3.52 49.1484 4.32 49.1484 6.752V8.928C49.1484 11.36 47.4524 12.16 45.9164 12.16ZM47.9484 8.944V6.736C47.9484 5.36 46.9884 4.672 45.9164 4.672C44.8444 4.672 43.8844 5.36 43.8844 6.736V8.944C43.8844 10.32 44.8444 11.008 45.9164 11.008C46.9884 11.008 47.9484 10.32 47.9484 8.944ZM58.5668 1.952H57.3028C56.7268 1.952 56.5348 2.144 56.5348 2.672V3.744H58.5668V4.896H56.5348V12H55.3348V4.896H54.1668V3.744H55.3348V2.768C55.3348 1.36 55.7668 0.799999 57.3028 0.799999H58.5668V1.952ZM64.9275 8.944V6.736C64.9275 5.36 63.9675 4.672 62.8955 4.672C61.8235 4.672 60.8635 5.36 60.8635 6.736V8.944C60.8635 10.32 61.8235 11.008 62.8955 11.008C63.9675 11.008 64.9275 10.32 64.9275 8.944ZM66.1275 6.752V8.928C66.1275 11.36 64.4315 12.16 62.8955 12.16C61.3595 12.16 59.6635 11.36 59.6635 8.928V6.752C59.6635 4.32 61.3595 3.52 62.8955 3.52C64.4315 3.52 66.1275 4.32 66.1275 6.752ZM69.5094 3.744V4.608C69.9254 3.936 70.7894 3.6 71.5414 3.6H72.0694V4.752H71.5414C70.4694 4.752 69.5094 5.44 69.5094 6.816V12H68.3094V3.744H69.5094ZM80.2095 12.16C78.8495 12.16 77.0255 11.424 77.0255 8.976V3.744H78.2255V8.896C78.2255 10.368 79.2335 11.008 80.2095 11.008C81.2175 11.008 82.1935 10.304 82.1935 8.944V3.744H83.3935V12H82.1935V11.152C81.7775 11.808 80.9135 12.16 80.2095 12.16ZM89.0258 12.16C88.2738 12.16 87.4098 11.824 86.9938 11.152V14.944H85.7938V3.744H86.9938V4.528C87.4098 3.856 88.2738 3.52 89.0258 3.52C90.5618 3.52 92.2578 4.32 92.2578 6.752V8.928C92.2578 11.36 90.5618 12.16 89.0258 12.16ZM91.0578 8.944V6.736C91.0578 5.36 90.0978 4.672 89.0258 4.672C87.9538 4.672 86.9938 5.36 86.9938 6.736V8.944C86.9938 10.32 87.9538 11.008 89.0258 11.008C90.0978 11.008 91.0578 10.32 91.0578 8.944ZM97.4424 12.16C95.9064 12.16 94.2104 11.36 94.2104 8.928V6.752C94.2104 4.32 95.9064 3.52 97.4424 3.52C98.1944 3.52 99.0584 3.856 99.4744 4.528V0.799999H100.674V12H99.4744V11.152C99.0584 11.824 98.1944 12.16 97.4424 12.16ZM95.4104 6.736V8.944C95.4104 10.32 96.3704 11.008 97.4424 11.008C98.5144 11.008 99.4744 10.32 99.4744 8.944V6.736C99.4744 5.36 98.5144 4.672 97.4424 4.672C96.3704 4.672 95.4104 5.36 95.4104 6.736ZM105.987 4.672C105.043 4.672 104.195 5.2 104.003 6.272H102.771C102.979 4.208 104.547 3.52 105.987 3.52C107.523 3.52 109.219 4.32 109.219 6.752V12H108.019V11.152C107.491 11.84 106.563 12.16 105.443 12.16C104.035 12.16 102.707 11.408 102.707 9.712C102.707 8.88 103.059 7.76 104.499 7.344C105.443 7.072 106.627 6.976 108.019 6.88V6.736C108.019 5.36 107.059 4.672 105.987 4.672ZM108.019 9.024V7.952C106.211 8.08 105.187 8.192 104.627 8.496C104.019 8.832 103.907 9.2 103.907 9.68C103.907 10.432 104.483 11.008 105.699 11.008C106.995 11.008 108.019 10.32 108.019 9.024ZM113.097 4.896V10.128C113.097 10.656 113.289 10.848 113.865 10.848H115.129V12H113.865C112.329 12 111.897 11.44 111.897 10.032V4.896H110.729V3.744H111.897V1.872H113.097V3.744H115.129V4.896H113.097ZM119.974 11.008C120.918 11.008 121.766 10.48 121.958 9.408H123.19C122.982 11.472 121.414 12.16 119.974 12.16C118.438 12.16 116.742 11.36 116.742 8.928V6.752C116.742 4.32 118.438 3.52 119.974 3.52C121.51 3.52 123.206 4.32 123.206 6.752V8.144H117.942V8.944C117.942 10.32 118.902 11.008 119.974 11.008ZM122.006 7.04V6.736C122.006 5.36 121.046 4.672 119.974 4.672C118.902 4.672 117.942 5.36 117.942 6.736V7.04H122.006ZM130.749 6.16H129.517C129.373 5.2 128.733 4.672 127.709 4.672C126.813 4.672 126.157 5.12 126.157 5.872C126.157 6.56 126.621 6.864 127.293 7.024L128.845 7.408C130.093 7.712 130.957 8.336 130.957 9.856C130.957 11.488 129.725 12.16 128.045 12.16C126.317 12.16 124.861 11.36 124.733 9.36H125.965C126.077 10.528 126.941 11.008 128.045 11.008C129.197 11.008 129.725 10.544 129.741 9.824C129.741 9.296 129.501 8.832 128.589 8.608L126.973 8.208C126.077 8 124.941 7.392 124.941 5.92C124.941 4.4 126.205 3.52 127.725 3.52C129.389 3.52 130.621 4.32 130.749 6.16ZM140.082 1.952H138.818C138.242 1.952 138.05 2.144 138.05 2.672V3.744H140.082V4.896H138.05V12H136.85V4.896H135.682V3.744H136.85V2.768C136.85 1.36 137.282 0.799999 138.818 0.799999H140.082V1.952ZM142.713 3.744V4.608C143.129 3.936 143.993 3.6 144.745 3.6H145.273V4.752H144.745C143.673 4.752 142.713 5.44 142.713 6.816V12H141.513V3.744H142.713ZM151.756 8.944V6.736C151.756 5.36 150.796 4.672 149.724 4.672C148.652 4.672 147.692 5.36 147.692 6.736V8.944C147.692 10.32 148.652 11.008 149.724 11.008C150.796 11.008 151.756 10.32 151.756 8.944ZM152.956 6.752V8.928C152.956 11.36 151.26 12.16 149.724 12.16C148.188 12.16 146.492 11.36 146.492 8.928V6.752C146.492 4.32 148.188 3.52 149.724 3.52C151.26 3.52 152.956 4.32 152.956 6.752ZM166.386 12H165.186V6.64C165.186 5.408 164.226 4.672 163.282 4.672C162.306 4.672 161.362 5.408 161.362 6.736V12H160.162V6.64C160.162 5.408 159.202 4.672 158.258 4.672C157.282 4.672 156.338 5.408 156.338 6.736V12H155.138V3.744H156.338V4.528C156.738 3.856 157.65 3.52 158.258 3.52C159.186 3.52 160.194 3.904 160.754 4.816C161.314 3.904 162.338 3.52 163.266 3.52C164.754 3.52 166.386 4.416 166.386 6.752V12ZM183.511 12H182.311V6.64C182.311 5.408 181.351 4.672 180.407 4.672C179.431 4.672 178.487 5.408 178.487 6.736V12H177.287V6.64C177.287 5.408 176.327 4.672 175.383 4.672C174.407 4.672 173.463 5.408 173.463 6.736V12H172.263V3.744H173.463V4.528C173.863 3.856 174.775 3.52 175.383 3.52C176.311 3.52 177.319 3.904 177.879 4.816C178.439 3.904 179.463 3.52 180.391 3.52C181.879 3.52 183.511 4.416 183.511 6.752V12ZM188.802 11.008C189.746 11.008 190.594 10.48 190.786 9.408H192.018C191.81 11.472 190.242 12.16 188.802 12.16C187.266 12.16 185.57 11.36 185.57 8.928V6.752C185.57 4.32 187.266 3.52 188.802 3.52C190.338 3.52 192.034 4.32 192.034 6.752V8.144H186.77V8.944C186.77 10.32 187.73 11.008 188.802 11.008ZM190.834 7.04V6.736C190.834 5.36 189.874 4.672 188.802 4.672C187.73 4.672 186.77 5.36 186.77 6.736V7.04H190.834ZM195.722 4.896V10.128C195.722 10.656 195.914 10.848 196.49 10.848H197.754V12H196.49C194.954 12 194.522 11.44 194.522 10.032V4.896H193.354V3.744H194.522V1.872H195.722V3.744H197.754V4.896H195.722ZM201.175 4.896V10.128C201.175 10.656 201.367 10.848 201.943 10.848H203.207V12H201.943C200.407 12 199.975 11.44 199.975 10.032V4.896H198.807V3.744H199.975V1.872H201.175V3.744H203.207V4.896H201.175ZM207.956 4.672C207.012 4.672 206.164 5.2 205.972 6.272H204.74C204.948 4.208 206.516 3.52 207.956 3.52C209.492 3.52 211.188 4.32 211.188 6.752V12H209.988V11.152C209.46 11.84 208.532 12.16 207.412 12.16C206.004 12.16 204.676 11.408 204.676 9.712C204.676 8.88 205.028 7.76 206.468 7.344C207.412 7.072 208.596 6.976 209.988 6.88V6.736C209.988 5.36 209.028 4.672 207.956 4.672ZM209.988 9.024V7.952C208.18 8.08 207.156 8.192 206.596 8.496C205.988 8.832 205.876 9.2 205.876 9.68C205.876 10.432 206.452 11.008 207.668 11.008C208.964 11.008 209.988 10.32 209.988 9.024ZM205.62 2.352V1.312H210.388V2.352H205.62ZM228.323 12H227.123V6.64C227.123 5.408 226.163 4.672 225.219 4.672C224.243 4.672 223.299 5.408 223.299 6.736V12H222.099V6.64C222.099 5.408 221.139 4.672 220.195 4.672C219.219 4.672 218.275 5.408 218.275 6.736V12H217.075V3.744H218.275V4.528C218.675 3.856 219.587 3.52 220.195 3.52C221.123 3.52 222.131 3.904 222.691 4.816C223.251 3.904 224.275 3.52 225.203 3.52C226.691 3.52 228.323 4.416 228.323 6.752V12ZM233.678 12.16C232.318 12.16 230.494 11.424 230.494 8.976V3.744H231.694V8.896C231.694 10.368 232.702 11.008 233.678 11.008C234.686 11.008 235.662 10.304 235.662 8.944V3.744H236.862V12H235.662V11.152C235.246 11.808 234.382 12.16 233.678 12.16ZM244.703 6.16H243.471C243.327 5.2 242.687 4.672 241.663 4.672C240.767 4.672 240.111 5.12 240.111 5.872C240.111 6.56 240.575 6.864 241.247 7.024L242.799 7.408C244.047 7.712 244.911 8.336 244.911 9.856C244.911 11.488 243.679 12.16 241.999 12.16C240.271 12.16 238.815 11.36 238.687 9.36H239.919C240.031 10.528 240.895 11.008 241.999 11.008C243.151 11.008 243.679 10.544 243.695 9.824C243.695 9.296 243.455 8.832 242.543 8.608L240.927 8.208C240.031 8 238.895 7.392 238.895 5.92C238.895 4.4 240.159 3.52 241.679 3.52C243.343 3.52 244.575 4.32 244.703 6.16ZM249.802 11.008C250.746 11.008 251.594 10.48 251.786 9.408H253.018C252.81 11.472 251.242 12.16 249.802 12.16C248.266 12.16 246.57 11.36 246.57 8.928V6.752C246.57 4.32 248.266 3.52 249.802 3.52C251.338 3.52 253.034 4.32 253.034 6.752V8.144H247.77V8.944C247.77 10.32 248.73 11.008 249.802 11.008ZM251.834 7.04V6.736C251.834 5.36 250.874 4.672 249.802 4.672C248.73 4.672 247.77 5.36 247.77 6.736V7.04H251.834ZM255.063 12V10.32H256.743V12H255.063Z" fill="white"/>
</svg>
