<svg width="65" height="24" viewBox="0 0 65 24" fill="none" xmlns="http://www.w3.org/2000/svg">
<path d="M5.6 18.2C2.54 18.2 0.56 16.36 0.42 13.58H3.18C3.34 14.76 4.26 15.54 5.6 15.54C6.78 15.54 7.6 15.1 7.6 14.14C7.6 13.36 7.14 12.92 6.16 12.66L3.8 12.02C1.66 11.44 0.6 9.94 0.6 7.88C0.6 5.08 2.8 3.8 5.24 3.8C8.04 3.8 9.78 5.44 10.08 7.82H7.32C7.08 6.88 6.1 6.46 5.2 6.46C4.08 6.46 3.28 6.9 3.28 7.88C3.28 8.7 3.92 9.06 4.68 9.26L6.96 9.88C9.12 10.46 10.28 11.78 10.28 14.14C10.28 16.66 8.64 18.2 5.6 18.2ZM15.8403 14.04V18H13.1203V4H15.8403V10.04L20.9803 4H24.4003L19.4803 9.78L24.9003 18H21.6203L17.6403 11.94L15.8403 14.04ZM29.6909 4V18H27.0109V4H29.6909ZM35.9644 4V15.34H41.8044V18H33.2844V4H35.9644ZM46.7886 4V15.34H52.6286V18H44.1086V4H46.7886ZM59.2328 18.2C56.1728 18.2 54.1928 16.36 54.0528 13.58H56.8128C56.9728 14.76 57.8928 15.54 59.2328 15.54C60.4128 15.54 61.2328 15.1 61.2328 14.14C61.2328 13.36 60.7728 12.92 59.7928 12.66L57.4328 12.02C55.2928 11.44 54.2328 9.94 54.2328 7.88C54.2328 5.08 56.4328 3.8 58.8728 3.8C61.6728 3.8 63.4128 5.44 63.7128 7.82H60.9528C60.7128 6.88 59.7328 6.46 58.8328 6.46C57.7128 6.46 56.9128 6.9 56.9128 7.88C56.9128 8.7 57.5528 9.06 58.3128 9.26L60.5928 9.88C62.7528 10.46 63.9128 11.78 63.9128 14.14C63.9128 16.66 62.2728 18.2 59.2328 18.2Z" fill="#252020"/>
</svg>
