<svg width="79" height="24" viewBox="0 0 79 24" fill="none" xmlns="http://www.w3.org/2000/svg">
<path d="M5.6 18.2C2.54 18.2 0.56 16.36 0.42 13.58H3.18C3.34 14.76 4.26 15.54 5.6 15.54C6.78 15.54 7.6 15.1 7.6 14.14C7.6 13.36 7.14 12.92 6.16 12.66L3.8 12.02C1.66 11.44 0.6 9.94 0.6 7.88C0.6 5.08 2.8 3.8 5.24 3.8C8.04 3.8 9.78 5.44 10.08 7.82H7.32C7.08 6.88 6.1 6.46 5.2 6.46C4.08 6.46 3.28 6.9 3.28 7.88C3.28 8.7 3.92 9.06 4.68 9.26L6.96 9.88C9.12 10.46 10.28 11.78 10.28 14.14C10.28 16.66 8.64 18.2 5.6 18.2ZM22.3603 6.66H18.4603V18H15.7003V6.66H11.8003V4H22.3603V6.66ZM34.6119 13.02C34.6119 16.12 32.6919 18.2 29.3319 18.2C25.9719 18.2 24.0519 16.12 24.0519 13.02V8.98C24.0519 5.88 25.9719 3.8 29.3319 3.8C32.6919 3.8 34.6119 5.88 34.6119 8.98V13.02ZM31.9319 13.02V8.98C31.9319 7.36 30.7919 6.46 29.3319 6.46C27.8719 6.46 26.7319 7.36 26.7319 8.98V13.02C26.7319 14.64 27.8719 15.54 29.3319 15.54C30.7919 15.54 31.9319 14.64 31.9319 13.02ZM42.1161 12.24H40.4761V18H37.7961V4H43.6961C46.5361 4 48.1161 5.6 48.1161 8.12C48.1161 10.2 47.0561 11.64 45.0961 12.1L48.5761 18H45.4961L42.1161 12.24ZM45.4361 8.16C45.4361 7.18 44.7761 6.66 43.7561 6.66H40.4761V9.64H43.7561C44.7761 9.64 45.4361 9.12 45.4361 8.16ZM53.8394 4V18H51.1594V4H53.8394ZM60.1128 6.66V9.6H65.9528V12.26H60.1128V15.34H65.9528V18H57.4328V4H65.9528V6.66H60.1128ZM73.5336 18.2C70.4736 18.2 68.4936 16.36 68.3536 13.58H71.1136C71.2736 14.76 72.1936 15.54 73.5336 15.54C74.7136 15.54 75.5336 15.1 75.5336 14.14C75.5336 13.36 75.0736 12.92 74.0936 12.66L71.7336 12.02C69.5936 11.44 68.5336 9.94 68.5336 7.88C68.5336 5.08 70.7336 3.8 73.1736 3.8C75.9736 3.8 77.7136 5.44 78.0136 7.82H75.2536C75.0136 6.88 74.0336 6.46 73.1336 6.46C72.0136 6.46 71.2136 6.9 71.2136 7.88C71.2136 8.7 71.8536 9.06 72.6136 9.26L74.8936 9.88C77.0536 10.46 78.2136 11.78 78.2136 14.14C78.2136 16.66 76.5736 18.2 73.5336 18.2Z" fill="#252020"/>
</svg>
