<svg width="441" height="12" viewBox="0 0 441 12" fill="none" xmlns="http://www.w3.org/2000/svg">
<path d="M2.412 1.512H0.168V0.599999H5.58V1.512H3.336V9H2.412V1.512ZM6.94453 2.808V3.456C7.25653 2.952 7.90453 2.7 8.46853 2.7H8.86453V3.564H8.46853C7.66453 3.564 6.94453 4.08 6.94453 5.112V9H6.04453V2.808H6.94453ZM12.0723 3.504C11.3643 3.504 10.7283 3.9 10.5843 4.704H9.66028C9.81628 3.156 10.9923 2.64 12.0723 2.64C13.2243 2.64 14.4963 3.24 14.4963 5.064V9H13.5963V8.364C13.2003 8.88 12.5043 9.12 11.6643 9.12C10.6083 9.12 9.61228 8.556 9.61228 7.284C9.61228 6.66 9.87628 5.82 10.9563 5.508C11.6643 5.304 12.5523 5.232 13.5963 5.16V5.052C13.5963 4.02 12.8763 3.504 12.0723 3.504ZM13.5963 6.768V5.964C12.2403 6.06 11.4723 6.144 11.0523 6.372C10.5963 6.624 10.5123 6.9 10.5123 7.26C10.5123 7.824 10.9443 8.256 11.8563 8.256C12.8283 8.256 13.5963 7.74 13.5963 6.768ZM18.6404 2.64C19.7924 2.64 21.0644 3.24 21.0644 5.064V9H20.1644V5.052C20.1644 4.02 19.4444 3.504 18.6404 3.504C17.8364 3.504 17.1164 4.02 17.1164 5.052V9H16.2164V2.808H17.1164V3.396C17.4284 2.892 18.0764 2.64 18.6404 2.64ZM26.8589 4.62H25.9349C25.8269 3.9 25.3469 3.504 24.5789 3.504C23.9069 3.504 23.4149 3.84 23.4149 4.404C23.4149 4.92 23.7629 5.148 24.2669 5.268L25.4309 5.556C26.3669 5.784 27.0149 6.252 27.0149 7.392C27.0149 8.616 26.0909 9.12 24.8309 9.12C23.5349 9.12 22.4429 8.52 22.3469 7.02H23.2709C23.3549 7.896 24.0029 8.256 24.8309 8.256C25.6949 8.256 26.0909 7.908 26.1029 7.368C26.1029 6.972 25.9229 6.624 25.2389 6.456L24.0269 6.156C23.3549 6 22.5029 5.544 22.5029 4.44C22.5029 3.3 23.4509 2.64 24.5909 2.64C25.8389 2.64 26.7629 3.24 26.8589 4.62ZM30.6113 3.504C29.9033 3.504 29.2673 3.9 29.1233 4.704H28.1993C28.3553 3.156 29.5313 2.64 30.6113 2.64C31.7633 2.64 33.0353 3.24 33.0353 5.064V9H32.1353V8.364C31.7393 8.88 31.0433 9.12 30.2033 9.12C29.1473 9.12 28.1513 8.556 28.1513 7.284C28.1513 6.66 28.4153 5.82 29.4953 5.508C30.2033 5.304 31.0913 5.232 32.1353 5.16V5.052C32.1353 4.02 31.4153 3.504 30.6113 3.504ZM32.1353 6.768V5.964C30.7793 6.06 30.0113 6.144 29.5913 6.372C29.1353 6.624 29.0513 6.9 29.0513 7.26C29.0513 7.824 29.4833 8.256 30.3953 8.256C31.3673 8.256 32.1353 7.74 32.1353 6.768ZM37.0115 2.64C38.1035 2.64 39.2915 3.168 39.4235 4.764H38.5115C38.3915 3.924 37.7315 3.504 37.0115 3.504C36.2075 3.504 35.4875 4.02 35.4875 5.052V6.708C35.4875 7.74 36.2075 8.256 37.0115 8.256C37.7315 8.256 38.3915 7.836 38.5115 6.996H39.4235C39.2915 8.592 38.1035 9.12 37.0115 9.12C35.8595 9.12 34.5875 8.532 34.5875 6.696V5.064C34.5875 3.24 35.8595 2.64 37.0115 2.64ZM42.1193 3.672V7.596C42.1193 7.992 42.2633 8.136 42.6953 8.136H43.6433V9H42.6953C41.5433 9 41.2193 8.58 41.2193 7.524V3.672H40.3433V2.808H41.2193V1.404H42.1193V2.808H43.6433V3.672H42.1193ZM45.9211 0.599999V1.764H45.0211V0.599999H45.9211ZM45.9211 2.808V9H45.0211V2.808H45.9211ZM51.4964 6.708V5.052C51.4964 4.02 50.7764 3.504 49.9724 3.504C49.1684 3.504 48.4484 4.02 48.4484 5.052V6.708C48.4484 7.74 49.1684 8.256 49.9724 8.256C50.7764 8.256 51.4964 7.74 51.4964 6.708ZM52.3964 5.064V6.696C52.3964 8.52 51.1244 9.12 49.9724 9.12C48.8204 9.12 47.5484 8.52 47.5484 6.696V5.064C47.5484 3.24 48.8204 2.64 49.9724 2.64C51.1244 2.64 52.3964 3.24 52.3964 5.064ZM56.4568 2.64C57.6088 2.64 58.8808 3.24 58.8808 5.064V9H57.9808V5.052C57.9808 4.02 57.2608 3.504 56.4568 3.504C55.6528 3.504 54.9328 4.02 54.9328 5.052V9H54.0328V2.808H54.9328V3.396C55.2448 2.892 55.8928 2.64 56.4568 2.64ZM64.6753 4.62H63.7513C63.6433 3.9 63.1633 3.504 62.3953 3.504C61.7233 3.504 61.2313 3.84 61.2313 4.404C61.2313 4.92 61.5793 5.148 62.0833 5.268L63.2473 5.556C64.1833 5.784 64.8313 6.252 64.8313 7.392C64.8313 8.616 63.9073 9.12 62.6473 9.12C61.3513 9.12 60.2593 8.52 60.1633 7.02H61.0873C61.1713 7.896 61.8193 8.256 62.6473 8.256C63.5113 8.256 63.9073 7.908 63.9193 7.368C63.9193 6.972 63.7393 6.624 63.0553 6.456L61.8433 6.156C61.1713 6 60.3193 5.544 60.3193 4.44C60.3193 3.3 61.2673 2.64 62.4073 2.64C63.6553 2.64 64.5793 3.24 64.6753 4.62ZM72.5871 2.808L73.9551 7.632L75.1551 2.808H76.0911L74.4591 9H73.5231L72.1431 4.14L70.7631 9H69.8271L68.1951 2.808H69.1311L70.3311 7.632L71.6991 2.808H72.5871ZM78.0422 0.599999V1.764H77.1422V0.599999H78.0422ZM78.0422 2.808V9H77.1422V2.808H78.0422ZM80.7135 0.599999V7.596C80.7135 7.992 80.8575 8.136 81.2895 8.136H81.4815V9H81.2895C80.1375 9 79.8135 8.58 79.8135 7.524V0.599999H80.7135ZM83.7604 0.599999V7.596C83.7604 7.992 83.9044 8.136 84.3364 8.136H84.5284V9H84.3364C83.1844 9 82.8604 8.58 82.8604 7.524V0.599999H83.7604ZM91.0506 9.12C90.4866 9.12 89.8386 8.868 89.5266 8.364V9H88.6266V0.599999H89.5266V3.396C89.8386 2.892 90.4866 2.64 91.0506 2.64C92.2026 2.64 93.4746 3.24 93.4746 5.064V6.696C93.4746 8.52 92.2026 9.12 91.0506 9.12ZM92.5746 6.708V5.052C92.5746 4.02 91.8546 3.504 91.0506 3.504C90.2466 3.504 89.5266 4.02 89.5266 5.052V6.708C89.5266 7.74 90.2466 8.256 91.0506 8.256C91.8546 8.256 92.5746 7.74 92.5746 6.708ZM97.363 8.256C98.071 8.256 98.707 7.86 98.851 7.056H99.775C99.619 8.604 98.443 9.12 97.363 9.12C96.211 9.12 94.939 8.52 94.939 6.696V5.064C94.939 3.24 96.211 2.64 97.363 2.64C98.515 2.64 99.787 3.24 99.787 5.064V6.108H95.839V6.708C95.839 7.74 96.559 8.256 97.363 8.256ZM98.887 5.28V5.052C98.887 4.02 98.167 3.504 97.363 3.504C96.559 3.504 95.839 4.02 95.839 5.052V5.28H98.887ZM106.316 2.64C107.408 2.64 108.596 3.168 108.728 4.764H107.816C107.696 3.924 107.036 3.504 106.316 3.504C105.512 3.504 104.792 4.02 104.792 5.052V6.708C104.792 7.74 105.512 8.256 106.316 8.256C107.036 8.256 107.696 7.836 107.816 6.996H108.728C108.596 8.592 107.408 9.12 106.316 9.12C105.164 9.12 103.892 8.532 103.892 6.696V5.064C103.892 3.24 105.164 2.64 106.316 2.64ZM114.016 6.708V5.052C114.016 4.02 113.296 3.504 112.492 3.504C111.688 3.504 110.968 4.02 110.968 5.052V6.708C110.968 7.74 111.688 8.256 112.492 8.256C113.296 8.256 114.016 7.74 114.016 6.708ZM114.916 5.064V6.696C114.916 8.52 113.644 9.12 112.492 9.12C111.34 9.12 110.068 8.52 110.068 6.696V5.064C110.068 3.24 111.34 2.64 112.492 2.64C113.644 2.64 114.916 3.24 114.916 5.064ZM124.988 9H124.088V4.98C124.088 4.056 123.368 3.504 122.66 3.504C121.928 3.504 121.22 4.056 121.22 5.052V9H120.32V4.98C120.32 4.056 119.6 3.504 118.892 3.504C118.16 3.504 117.452 4.056 117.452 5.052V9H116.552V2.808H117.452V3.396C117.752 2.892 118.436 2.64 118.892 2.64C119.588 2.64 120.344 2.928 120.764 3.612C121.184 2.928 121.952 2.64 122.648 2.64C123.764 2.64 124.988 3.312 124.988 5.064V9ZM129.125 9.12C128.561 9.12 127.913 8.868 127.601 8.364V11.208H126.701V2.808H127.601V3.396C127.913 2.892 128.561 2.64 129.125 2.64C130.277 2.64 131.549 3.24 131.549 5.064V6.696C131.549 8.52 130.277 9.12 129.125 9.12ZM130.649 6.708V5.052C130.649 4.02 129.929 3.504 129.125 3.504C128.321 3.504 127.601 4.02 127.601 5.052V6.708C127.601 7.74 128.321 8.256 129.125 8.256C129.929 8.256 130.649 7.74 130.649 6.708ZM134.057 0.599999V7.596C134.057 7.992 134.201 8.136 134.633 8.136H134.825V9H134.633C133.481 9 133.157 8.58 133.157 7.524V0.599999H134.057ZM138.484 8.256C139.192 8.256 139.828 7.86 139.972 7.056H140.896C140.74 8.604 139.564 9.12 138.484 9.12C137.332 9.12 136.06 8.52 136.06 6.696V5.064C136.06 3.24 137.332 2.64 138.484 2.64C139.636 2.64 140.908 3.24 140.908 5.064V6.108H136.96V6.708C136.96 7.74 137.68 8.256 138.484 8.256ZM140.008 5.28V5.052C140.008 4.02 139.288 3.504 138.484 3.504C137.68 3.504 136.96 4.02 136.96 5.052V5.28H140.008ZM143.674 3.672V7.596C143.674 7.992 143.818 8.136 144.25 8.136H145.198V9H144.25C143.098 9 142.774 8.58 142.774 7.524V3.672H141.898V2.808H142.774V1.404H143.674V2.808H145.198V3.672H143.674ZM148.832 8.256C149.54 8.256 150.176 7.86 150.32 7.056H151.244C151.088 8.604 149.912 9.12 148.832 9.12C147.68 9.12 146.408 8.52 146.408 6.696V5.064C146.408 3.24 147.68 2.64 148.832 2.64C149.984 2.64 151.256 3.24 151.256 5.064V6.108H147.308V6.708C147.308 7.74 148.028 8.256 148.832 8.256ZM150.356 5.28V5.052C150.356 4.02 149.636 3.504 148.832 3.504C148.028 3.504 147.308 4.02 147.308 5.052V5.28H150.356ZM155.09 9.12C153.938 9.12 152.666 8.52 152.666 6.696V5.064C152.666 3.24 153.938 2.64 155.09 2.64C155.654 2.64 156.302 2.892 156.614 3.396V0.599999H157.514V9H156.614V8.364C156.302 8.868 155.654 9.12 155.09 9.12ZM153.566 5.052V6.708C153.566 7.74 154.286 8.256 155.09 8.256C155.894 8.256 156.614 7.74 156.614 6.708V5.052C156.614 4.02 155.894 3.504 155.09 3.504C154.286 3.504 153.566 4.02 153.566 5.052ZM162.909 0.599999V1.764H162.009V0.599999H162.909ZM162.909 2.808V9H162.009V2.808H162.909ZM167.129 2.64C168.281 2.64 169.553 3.24 169.553 5.064V9H168.653V5.052C168.653 4.02 167.933 3.504 167.129 3.504C166.325 3.504 165.605 4.02 165.605 5.052V9H164.705V2.808H165.605V3.396C165.917 2.892 166.565 2.64 167.129 2.64ZM174.947 5.208V8.088H178.799V9H174.023V0.599999H178.799V1.512H174.947V4.296H178.799V5.208H174.947ZM182.77 9.12C181.75 9.12 180.382 8.568 180.382 6.732V2.808H181.282V6.672C181.282 7.776 182.038 8.256 182.77 8.256C183.526 8.256 184.258 7.728 184.258 6.708V2.808H185.158V9H184.258V8.364C183.946 8.856 183.298 9.12 182.77 9.12ZM187.859 2.808V3.456C188.171 2.952 188.819 2.7 189.383 2.7H189.779V3.564H189.383C188.579 3.564 187.859 4.08 187.859 5.112V9H186.959V2.808H187.859ZM194.641 6.708V5.052C194.641 4.02 193.921 3.504 193.117 3.504C192.313 3.504 191.593 4.02 191.593 5.052V6.708C191.593 7.74 192.313 8.256 193.117 8.256C193.921 8.256 194.641 7.74 194.641 6.708ZM195.541 5.064V6.696C195.541 8.52 194.269 9.12 193.117 9.12C191.965 9.12 190.693 8.52 190.693 6.696V5.064C190.693 3.24 191.965 2.64 193.117 2.64C194.269 2.64 195.541 3.24 195.541 5.064ZM201.257 4.62H200.333C200.225 3.9 199.745 3.504 198.977 3.504C198.305 3.504 197.813 3.84 197.813 4.404C197.813 4.92 198.161 5.148 198.665 5.268L199.829 5.556C200.765 5.784 201.413 6.252 201.413 7.392C201.413 8.616 200.489 9.12 199.229 9.12C197.933 9.12 196.841 8.52 196.745 7.02H197.669C197.753 7.896 198.401 8.256 199.229 8.256C200.093 8.256 200.489 7.908 200.501 7.368C200.501 6.972 200.321 6.624 199.637 6.456L198.425 6.156C197.753 6 196.901 5.544 196.901 4.44C196.901 3.3 197.849 2.64 198.989 2.64C200.237 2.64 201.161 3.24 201.257 4.62ZM207.705 3.504C206.997 3.504 206.361 3.9 206.217 4.704H205.293C205.449 3.156 206.625 2.64 207.705 2.64C208.857 2.64 210.129 3.24 210.129 5.064V9H209.229V8.364C208.833 8.88 208.137 9.12 207.297 9.12C206.241 9.12 205.245 8.556 205.245 7.284C205.245 6.66 205.509 5.82 206.589 5.508C207.297 5.304 208.185 5.232 209.229 5.16V5.052C209.229 4.02 208.509 3.504 207.705 3.504ZM209.229 6.768V5.964C207.873 6.06 207.105 6.144 206.685 6.372C206.229 6.624 206.145 6.9 206.145 7.26C206.145 7.824 206.577 8.256 207.489 8.256C208.461 8.256 209.229 7.74 209.229 6.768ZM214.273 2.64C215.425 2.64 216.697 3.24 216.697 5.064V9H215.797V5.052C215.797 4.02 215.077 3.504 214.273 3.504C213.469 3.504 212.749 4.02 212.749 5.052V9H211.849V2.808H212.749V3.396C213.061 2.892 213.709 2.64 214.273 2.64ZM220.668 9.12C219.516 9.12 218.244 8.52 218.244 6.696V5.064C218.244 3.24 219.516 2.64 220.668 2.64C221.232 2.64 221.88 2.892 222.192 3.396V0.599999H223.092V9H222.192V8.364C221.88 8.868 221.232 9.12 220.668 9.12ZM219.144 5.052V6.708C219.144 7.74 219.864 8.256 220.668 8.256C221.472 8.256 222.192 7.74 222.192 6.708V5.052C222.192 4.02 221.472 3.504 220.668 3.504C219.864 3.504 219.144 4.02 219.144 5.052ZM229.771 3.504C229.064 3.504 228.428 3.9 228.284 4.704H227.36C227.516 3.156 228.692 2.64 229.771 2.64C230.924 2.64 232.196 3.24 232.196 5.064V9H231.296V8.364C230.9 8.88 230.204 9.12 229.364 9.12C228.308 9.12 227.312 8.556 227.312 7.284C227.312 6.66 227.576 5.82 228.656 5.508C229.364 5.304 230.252 5.232 231.296 5.16V5.052C231.296 4.02 230.576 3.504 229.771 3.504ZM231.296 6.768V5.964C229.94 6.06 229.172 6.144 228.752 6.372C228.296 6.624 228.212 6.9 228.212 7.26C228.212 7.824 228.644 8.256 229.556 8.256C230.528 8.256 231.296 7.74 231.296 6.768ZM238.867 2.64C239.959 2.64 241.147 3.168 241.279 4.764H240.367C240.247 3.924 239.587 3.504 238.867 3.504C238.063 3.504 237.343 4.02 237.343 5.052V6.708C237.343 7.74 238.063 8.256 238.867 8.256C239.587 8.256 240.247 7.836 240.367 6.996H241.279C241.147 8.592 239.959 9.12 238.867 9.12C237.715 9.12 236.443 8.532 236.443 6.696V5.064C236.443 3.24 237.715 2.64 238.867 2.64ZM245.091 9.12C244.071 9.12 242.703 8.568 242.703 6.732V2.808H243.603V6.672C243.603 7.776 244.359 8.256 245.091 8.256C245.847 8.256 246.579 7.728 246.579 6.708V2.808H247.479V9H246.579V8.364C246.267 8.856 245.619 9.12 245.091 9.12ZM250.179 2.808V3.456C250.491 2.952 251.139 2.7 251.703 2.7H252.099V3.564H251.703C250.899 3.564 250.179 4.08 250.179 5.112V9H249.279V2.808H250.179ZM254.105 2.808V3.456C254.417 2.952 255.065 2.7 255.629 2.7H256.025V3.564H255.629C254.825 3.564 254.105 4.08 254.105 5.112V9H253.205V2.808H254.105ZM259.363 8.256C260.071 8.256 260.707 7.86 260.851 7.056H261.775C261.619 8.604 260.443 9.12 259.363 9.12C258.211 9.12 256.939 8.52 256.939 6.696V5.064C256.939 3.24 258.211 2.64 259.363 2.64C260.515 2.64 261.787 3.24 261.787 5.064V6.108H257.839V6.708C257.839 7.74 258.559 8.256 259.363 8.256ZM260.887 5.28V5.052C260.887 4.02 260.167 3.504 259.363 3.504C258.559 3.504 257.839 4.02 257.839 5.052V5.28H260.887ZM265.789 2.64C266.941 2.64 268.213 3.24 268.213 5.064V9H267.313V5.052C267.313 4.02 266.593 3.504 265.789 3.504C264.985 3.504 264.265 4.02 264.265 5.052V9H263.365V2.808H264.265V3.396C264.577 2.892 265.225 2.64 265.789 2.64ZM272.183 2.64C273.275 2.64 274.463 3.168 274.595 4.764H273.683C273.563 3.924 272.903 3.504 272.183 3.504C271.379 3.504 270.659 4.02 270.659 5.052V6.708C270.659 7.74 271.379 8.256 272.183 8.256C272.903 8.256 273.563 7.836 273.683 6.996H274.595C274.463 8.592 273.275 9.12 272.183 9.12C271.031 9.12 269.759 8.532 269.759 6.696V5.064C269.759 3.24 271.031 2.64 272.183 2.64ZM280.735 2.808L277.927 10.572C277.759 11.052 277.339 11.196 276.559 11.208H276.211V10.344H276.667C277.051 10.344 277.135 10.2 277.207 9.984L277.531 9.096L275.263 2.808H276.223L277.999 7.836L279.775 2.808H280.735ZM285.3 2.808V3.456C285.612 2.952 286.26 2.7 286.824 2.7H287.22V3.564H286.824C286.02 3.564 285.3 4.08 285.3 5.112V9H284.4V2.808H285.3ZM290.558 8.256C291.266 8.256 291.902 7.86 292.046 7.056H292.97C292.814 8.604 291.638 9.12 290.558 9.12C289.406 9.12 288.134 8.52 288.134 6.696V5.064C288.134 3.24 289.406 2.64 290.558 2.64C291.71 2.64 292.982 3.24 292.982 5.064V6.108H289.034V6.708C289.034 7.74 289.754 8.256 290.558 8.256ZM292.082 5.28V5.052C292.082 4.02 291.362 3.504 290.558 3.504C289.754 3.504 289.034 4.02 289.034 5.052V5.28H292.082ZM297.296 1.464H296.348C295.916 1.464 295.772 1.608 295.772 2.004V2.808H297.296V3.672H295.772V9H294.872V3.672H293.996V2.808H294.872V2.076C294.872 1.02 295.196 0.599999 296.348 0.599999H297.296V1.464ZM300.543 8.256C301.251 8.256 301.887 7.86 302.031 7.056H302.955C302.799 8.604 301.623 9.12 300.543 9.12C299.391 9.12 298.119 8.52 298.119 6.696V5.064C298.119 3.24 299.391 2.64 300.543 2.64C301.695 2.64 302.967 3.24 302.967 5.064V6.108H299.019V6.708C299.019 7.74 299.739 8.256 300.543 8.256ZM302.067 5.28V5.052C302.067 4.02 301.347 3.504 300.543 3.504C299.739 3.504 299.019 4.02 299.019 5.052V5.28H302.067ZM305.445 2.808V3.456C305.757 2.952 306.405 2.7 306.969 2.7H307.365V3.564H306.969C306.165 3.564 305.445 4.08 305.445 5.112V9H304.545V2.808H305.445ZM310.703 8.256C311.411 8.256 312.047 7.86 312.191 7.056H313.115C312.959 8.604 311.783 9.12 310.703 9.12C309.551 9.12 308.279 8.52 308.279 6.696V5.064C308.279 3.24 309.551 2.64 310.703 2.64C311.855 2.64 313.127 3.24 313.127 5.064V6.108H309.179V6.708C309.179 7.74 309.899 8.256 310.703 8.256ZM312.227 5.28V5.052C312.227 4.02 311.507 3.504 310.703 3.504C309.899 3.504 309.179 4.02 309.179 5.052V5.28H312.227ZM317.129 2.64C318.281 2.64 319.553 3.24 319.553 5.064V9H318.653V5.052C318.653 4.02 317.933 3.504 317.129 3.504C316.325 3.504 315.605 4.02 315.605 5.052V9H314.705V2.808H315.605V3.396C315.917 2.892 316.565 2.64 317.129 2.64ZM323.523 2.64C324.615 2.64 325.803 3.168 325.935 4.764H325.023C324.903 3.924 324.243 3.504 323.523 3.504C322.719 3.504 321.999 4.02 321.999 5.052V6.708C321.999 7.74 322.719 8.256 323.523 8.256C324.243 8.256 324.903 7.836 325.023 6.996H325.935C325.803 8.592 324.615 9.12 323.523 9.12C322.371 9.12 321.099 8.532 321.099 6.696V5.064C321.099 3.24 322.371 2.64 323.523 2.64ZM329.699 8.256C330.407 8.256 331.043 7.86 331.187 7.056H332.111C331.955 8.604 330.779 9.12 329.699 9.12C328.547 9.12 327.275 8.52 327.275 6.696V5.064C327.275 3.24 328.547 2.64 329.699 2.64C330.851 2.64 332.123 3.24 332.123 5.064V6.108H328.175V6.708C328.175 7.74 328.895 8.256 329.699 8.256ZM331.223 5.28V5.052C331.223 4.02 330.503 3.504 329.699 3.504C328.895 3.504 328.175 4.02 328.175 5.052V5.28H331.223ZM337.296 0.599999V1.764H336.396V0.599999H337.296ZM337.296 2.808V9H336.396V2.808H337.296ZM343.171 4.62H342.247C342.139 3.9 341.659 3.504 340.891 3.504C340.219 3.504 339.727 3.84 339.727 4.404C339.727 4.92 340.075 5.148 340.579 5.268L341.743 5.556C342.679 5.784 343.327 6.252 343.327 7.392C343.327 8.616 342.403 9.12 341.143 9.12C339.847 9.12 338.755 8.52 338.659 7.02H339.583C339.667 7.896 340.315 8.256 341.143 8.256C342.007 8.256 342.403 7.908 342.415 7.368C342.415 6.972 342.235 6.624 341.551 6.456L340.339 6.156C339.667 6 338.815 5.544 338.815 4.44C338.815 3.3 339.763 2.64 340.903 2.64C342.151 2.64 343.075 3.24 343.171 4.62ZM349.619 3.504C348.911 3.504 348.275 3.9 348.131 4.704H347.207C347.363 3.156 348.539 2.64 349.619 2.64C350.771 2.64 352.043 3.24 352.043 5.064V9H351.143V8.364C350.747 8.88 350.051 9.12 349.211 9.12C348.155 9.12 347.159 8.556 347.159 7.284C347.159 6.66 347.423 5.82 348.503 5.508C349.211 5.304 350.099 5.232 351.143 5.16V5.052C351.143 4.02 350.423 3.504 349.619 3.504ZM351.143 6.768V5.964C349.787 6.06 349.019 6.144 348.599 6.372C348.143 6.624 348.059 6.9 348.059 7.26C348.059 7.824 348.491 8.256 349.403 8.256C350.375 8.256 351.143 7.74 351.143 6.768ZM358.302 2.808L356.07 9H355.062L352.83 2.808H353.79L355.566 7.836L357.342 2.808H358.302ZM361.385 3.504C360.677 3.504 360.041 3.9 359.897 4.704H358.973C359.129 3.156 360.305 2.64 361.385 2.64C362.537 2.64 363.809 3.24 363.809 5.064V9H362.909V8.364C362.513 8.88 361.817 9.12 360.977 9.12C359.921 9.12 358.925 8.556 358.925 7.284C358.925 6.66 359.189 5.82 360.269 5.508C360.977 5.304 361.865 5.232 362.909 5.16V5.052C362.909 4.02 362.189 3.504 361.385 3.504ZM362.909 6.768V5.964C361.553 6.06 360.785 6.144 360.365 6.372C359.909 6.624 359.825 6.9 359.825 7.26C359.825 7.824 360.257 8.256 361.169 8.256C362.141 8.256 362.909 7.74 362.909 6.768ZM366.429 0.599999V1.764H365.529V0.599999H366.429ZM366.429 2.808V9H365.529V2.808H366.429ZM369.1 0.599999V7.596C369.1 7.992 369.244 8.136 369.676 8.136H369.868V9H369.676C368.524 9 368.2 8.58 368.2 7.524V0.599999H369.1ZM373.455 3.504C372.747 3.504 372.111 3.9 371.967 4.704H371.043C371.199 3.156 372.375 2.64 373.455 2.64C374.607 2.64 375.879 3.24 375.879 5.064V9H374.979V8.364C374.583 8.88 373.887 9.12 373.047 9.12C371.991 9.12 370.995 8.556 370.995 7.284C370.995 6.66 371.259 5.82 372.339 5.508C373.047 5.304 373.935 5.232 374.979 5.16V5.052C374.979 4.02 374.259 3.504 373.455 3.504ZM374.979 6.768V5.964C373.623 6.06 372.855 6.144 372.435 6.372C371.979 6.624 371.895 6.9 371.895 7.26C371.895 7.824 372.327 8.256 373.239 8.256C374.211 8.256 374.979 7.74 374.979 6.768ZM380.023 9.12C379.459 9.12 378.811 8.868 378.499 8.364V9H377.599V0.599999H378.499V3.396C378.811 2.892 379.459 2.64 380.023 2.64C381.175 2.64 382.447 3.24 382.447 5.064V6.696C382.447 8.52 381.175 9.12 380.023 9.12ZM381.547 6.708V5.052C381.547 4.02 380.827 3.504 380.023 3.504C379.219 3.504 378.499 4.02 378.499 5.052V6.708C378.499 7.74 379.219 8.256 380.023 8.256C380.827 8.256 381.547 7.74 381.547 6.708ZM384.956 0.599999V7.596C384.956 7.992 385.1 8.136 385.532 8.136H385.724V9H385.532C384.38 9 384.056 8.58 384.056 7.524V0.599999H384.956ZM389.383 8.256C390.091 8.256 390.727 7.86 390.871 7.056H391.795C391.639 8.604 390.463 9.12 389.383 9.12C388.231 9.12 386.959 8.52 386.959 6.696V5.064C386.959 3.24 388.231 2.64 389.383 2.64C390.535 2.64 391.807 3.24 391.807 5.064V6.108H387.859V6.708C387.859 7.74 388.579 8.256 389.383 8.256ZM390.907 5.28V5.052C390.907 4.02 390.187 3.504 389.383 3.504C388.579 3.504 387.859 4.02 387.859 5.052V5.28H390.907ZM399.86 6.708V5.052C399.86 4.02 399.14 3.504 398.336 3.504C397.532 3.504 396.812 4.02 396.812 5.052V6.708C396.812 7.74 397.532 8.256 398.336 8.256C399.14 8.256 399.86 7.74 399.86 6.708ZM400.76 5.064V6.696C400.76 8.52 399.488 9.12 398.336 9.12C397.184 9.12 395.912 8.52 395.912 6.696V5.064C395.912 3.24 397.184 2.64 398.336 2.64C399.488 2.64 400.76 3.24 400.76 5.064ZM404.82 2.64C405.972 2.64 407.244 3.24 407.244 5.064V9H406.344V5.052C406.344 4.02 405.624 3.504 404.82 3.504C404.016 3.504 403.296 4.02 403.296 5.052V9H402.396V2.808H403.296V3.396C403.608 2.892 404.256 2.64 404.82 2.64ZM414.078 2.64C415.23 2.64 416.502 3.24 416.502 5.064V9H415.602V5.052C415.602 4.02 414.882 3.504 414.078 3.504C413.274 3.504 412.554 4.02 412.554 5.052V9H411.654V0.599999H412.554V3.396C412.866 2.892 413.514 2.64 414.078 2.64ZM421.996 6.708V5.052C421.996 4.02 421.276 3.504 420.472 3.504C419.668 3.504 418.948 4.02 418.948 5.052V6.708C418.948 7.74 419.668 8.256 420.472 8.256C421.276 8.256 421.996 7.74 421.996 6.708ZM422.896 5.064V6.696C422.896 8.52 421.624 9.12 420.472 9.12C419.32 9.12 418.048 8.52 418.048 6.696V5.064C418.048 3.24 419.32 2.64 420.472 2.64C421.624 2.64 422.896 3.24 422.896 5.064ZM429.153 2.808L426.921 9H425.913L423.681 2.808H424.641L426.417 7.836L428.193 2.808H429.153ZM432.355 8.256C433.063 8.256 433.699 7.86 433.843 7.056H434.767C434.611 8.604 433.435 9.12 432.355 9.12C431.203 9.12 429.931 8.52 429.931 6.696V5.064C429.931 3.24 431.203 2.64 432.355 2.64C433.507 2.64 434.779 3.24 434.779 5.064V6.108H430.831V6.708C430.831 7.74 431.551 8.256 432.355 8.256ZM433.879 5.28V5.052C433.879 4.02 433.159 3.504 432.355 3.504C431.551 3.504 430.831 4.02 430.831 5.052V5.28H433.879ZM437.257 2.808V3.456C437.569 2.952 438.217 2.7 438.781 2.7H439.177V3.564H438.781C437.977 3.564 437.257 4.08 437.257 5.112V9H436.357V2.808H437.257ZM439.442 9V7.74H440.702V9H439.442Z" fill="white"/>
</svg>
